<svg version="1.2" xmlns="http://www.w3.org/2000/svg" viewBox="0 0 501 498" width="501" height="498"><style></style><path fill-rule="evenodd" d="m347.8 5.7v140.5c7.2 1.3 13.6 4.8 18.5 9.7 6.1 6.2 9.9 14.5 9.9 23.7v4.2h123.4c0 0 2.4 19.1-0.2 19.1l-123.2-0.4v45.6h123.8c0.3-0.7 0.3 19.4 0 18.7h-123.8v60.7h43.6c2.6 0 4.9 1 6.6 2.7 1.7 1.8 2.8 4.1 2.8 6.7v43.1c0.6 0.3 1.2 0.7 1.9 1.1q1.7 1.1 3.1 2.6l0.2 0.2c1.9 1.9 3.5 4.2 4.5 6.8 1.1 2.5 1.6 5.2 1.6 8.1q0 4.1-1.5 7.8l-0.1 0.2c-1 2.6-2.6 4.9-4.5 6.8-1.9 1.9-4.2 3.5-6.8 4.6-2.5 1-5.2 1.6-8.1 1.6-2.8 0-5.5-0.6-8-1.6-2.6-1.1-5-2.7-6.9-4.6-1.8-2-3.5-4.3-4.5-6.9-1-2.5-1.6-5.2-1.6-8.1 0-2.8 0.6-5.5 1.6-8 1-2.5 2.5-4.8 4.4-6.6l0.1-0.2c1.1-1.1 2.3-2.1 3.6-2.9q1-0.6 2.2-1.2v-33.4h-34.5c-1.1 7.3-4.6 13.9-9.6 19-6.3 6.3-15.1 10.2-24.7 10.2h-20.9v91.1h61.2q0.5-0.7 1-1.5 1.1-1.6 2.5-3c1.9-1.9 4.2-3.5 6.8-4.5 2.5-1 5.2-1.6 8-1.6 2.8 0 5.6 0.6 8.1 1.6 2.6 1 4.9 2.6 6.8 4.5 1.9 1.9 3.5 4.3 4.6 6.9 1 2.4 1.6 5.2 1.6 8 0 2.8-0.6 5.5-1.6 8.1-1.1 2.6-2.7 4.9-4.6 6.8-1.9 1.9-4.2 3.5-6.8 4.5-2.5 1.1-5.2 1.6-8.1 1.6q-4.1 0-7.8-1.5l-0.2-0.1c-2.6-1-4.9-2.6-6.8-4.5-1.2-1.2-2.3-2.6-3.2-4-0.5-0.8-0.9-1.7-1.3-2.6h-69.5c-2.6 0-4.9-1-6.6-2.7-1.8-1.8-2.8-4.1-2.8-6.7v-100.4h-45.6v82.7c0.7 0.4 1.4 0.7 2.1 1.2 1.3 0.7 2.4 1.7 3.5 2.7 1.9 2 3.4 4.3 4.5 6.9 1 2.4 1.6 5.2 1.6 8q0 4.2-1.6 7.9v0.2c-1.1 2.6-2.6 4.8-4.5 6.8-2 1.9-4.3 3.5-6.9 4.5-2.5 1.1-5.2 1.6-8 1.6-2.8 0-5.6-0.5-8.1-1.6-2.6-1-4.9-2.6-6.8-4.5-1.9-1.9-3.5-4.2-4.6-6.8-1-2.5-1.5-5.2-1.5-8.1q0-4.1 1.5-7.9v-0.1c1.1-2.6 2.7-4.9 4.6-6.9q1.5-1.5 3.3-2.7l0.2-0.1q1-0.5 2-1.1v-82.7h-60.7v42.8c0 2.6-1.1 5-2.8 6.7-1.7 1.7-4 2.7-6.6 2.7h-43.1c-0.3 0.7-0.7 1.3-1.1 1.9q-1.1 1.7-2.5 3.2l-0.2 0.1c-1.9 2-4.2 3.5-6.8 4.6-2.5 1-5.2 1.6-8.1 1.6q-4.1 0-7.9-1.6h-0.1c-2.6-1.1-4.9-2.6-6.9-4.6-1.9-1.9-3.5-4.2-4.5-6.8-1-2.5-1.6-5.2-1.6-8 0-2.8 0.6-5.6 1.6-8.1 1-2.6 2.6-4.9 4.5-6.8 2-1.9 4.4-3.5 7-4.5 2.5-1 5.2-1.6 8-1.6 2.9 0 5.6 0.6 8.1 1.6 2.5 1 4.7 2.5 6.6 4.4l0.2 0.2c1 1 2 2.2 2.8 3.5 0.4 0.7 0.9 1.5 1.2 2.3h33.5v-34.4c-6.7-1.4-12.6-4.8-17.2-9.4-6.1-6.1-9.9-14.5-9.9-23.7v-22.3h-99.8v61.2q0.8 0.5 1.6 1c1.1 0.7 2 1.6 2.9 2.5 1.9 1.9 3.5 4.2 4.6 6.8 1 2.5 1.6 5.2 1.6 8 0 2.8-0.6 5.6-1.6 8.1-1.1 2.6-2.7 4.9-4.6 6.8-1.9 1.9-4.2 3.5-6.8 4.6-2.5 1-5.2 1.6-8 1.6-2.8 0-5.5-0.6-8.1-1.6-2.6-1.1-4.9-2.7-6.8-4.6-1.9-1.9-3.5-4.2-4.6-6.8-1-2.6-1.6-5.3-1.6-8.1q0-4.2 1.5-7.9l0.1-0.2c1-2.6 2.6-4.9 4.5-6.8 1.2-1.2 2.6-2.3 4-3.2 0.8-0.4 1.7-0.9 2.6-1.3v-69.5c0-2.6 1-4.9 2.7-6.6 1.8-1.8 4.1-2.8 6.7-2.8h109.1v-45.5h-91.3c-0.4 0.6-0.8 1.3-1.2 2-0.8 1.3-1.7 2.5-2.8 3.5-1.9 1.9-4.2 3.5-6.8 4.5-2.5 1.1-5.2 1.6-8 1.6q-4.2 0-7.9-1.5l-0.2-0.1c-2.6-1-4.9-2.6-6.8-4.5-1.9-1.9-3.5-4.2-4.6-6.8-1-2.5-1.6-5.3-1.6-8.1 0-2.8 0.6-5.5 1.6-8 1.1-2.7 2.7-5 4.6-6.9 1.9-1.9 4.2-3.5 6.8-4.5 2.5-1.1 5.2-1.7 8.1-1.7q4.2 0.1 7.9 1.6h0.1c2.6 1.1 4.9 2.7 6.9 4.6q1.5 1.5 2.7 3.3l0.1 0.2q0.6 1 1.1 2h91.3v-56.5q0-2.1 0.2-4.2h-51.7c-2.6 0-4.9-1-6.6-2.8-1.7-1.7-2.8-4-2.8-6.6v-43.1c-0.6-0.3-1.2-0.7-1.9-1.1q-1.6-1.1-3.1-2.5l-0.2-0.2c-1.9-1.9-3.5-4.2-4.5-6.8-1-2.5-1.6-5.2-1.6-8.1q0-4.1 1.5-7.9l0.1-0.1c1-2.6 2.6-4.9 4.5-6.9 1.9-1.9 4.2-3.5 6.9-4.5 2.4-1 5.2-1.6 8-1.6 2.8 0 5.5 0.6 8 1.6 2.7 1 5 2.6 6.9 4.5 1.8 2 3.4 4.4 4.5 7 1 2.5 1.6 5.2 1.6 8 0 2.9-0.6 5.6-1.6 8.1-1.1 2.5-2.6 4.8-4.4 6.6l-0.2 0.2c-1 1-2.2 2.1-3.6 2.8-0.7 0.4-1.4 0.9-2.2 1.2v33.5h51v0.2c0.3-0.4 0.7-0.7 1-1 6.3-6.3 15.1-10.2 24.7-10.2h19.5v-109.4h-61.1q-0.4 0.8-1 1.6c-0.7 1.1-1.5 2-2.4 2.9-1.9 2-4.2 3.5-6.8 4.6-2.5 1-5.2 1.6-8.1 1.6-2.8 0-5.6-0.6-8-1.6-2.6-1.1-4.9-2.6-6.9-4.6-1.9-1.9-3.5-4.2-4.5-6.8-1-2.5-1.6-5.2-1.6-8.1 0-2.8 0.6-5.5 1.6-8 1-2.6 2.6-5 4.5-6.9 1.9-1.9 4.3-3.5 6.9-4.5 2.4-1 5.2-1.6 8-1.6q4.2 0 7.9 1.5l0.2 0.1c2.6 1 4.8 2.6 6.8 4.5 1.2 1.2 2.2 2.6 3.1 4 0.5 0.8 1 1.7 1.4 2.6h69.4c2.6 0 5 1 6.7 2.7 1.7 1.8 2.8 4.1 2.8 6.7v118.7h45.5l-1.7-140.2c0 0.2-0.1 0-0.4-0.1-0.1-0.1 0-0.2 0.4-0.2v-1.6c0 0.7 0.1 1.2 0.1 1.6 3.1-0.4 20.9 0.3 20.3 0.6v139.8h60.7v-141c0-2.6 18.8 1 18.8 1zm-99.9-2c0-0.9 0-2 0-3.6zm0 1.6q0 0 0 0v0.4q0-0.1 0-0.4zm93.7 158.7h-175.9c-4 0-7.7 1.6-10.4 4.3-2.9 2.9-4.7 7-4.7 11.4v162c0 4.4 1.8 8.5 4.7 11.3 2.7 2.8 6.4 4.4 10.4 4.4h175.9c4 0 7.7-1.6 10.4-4.4 2.9-2.8 4.7-6.9 4.7-11.3v-162c0-4.4-1.8-8.5-4.7-11.4-2.7-2.7-6.4-4.3-10.4-4.3zm-134.4 63.1c0-5.6 4.4-10 10-10h73c5.5 0 10 4.4 10 10v67.2c0 5.6-4.5 10-10 10h-73c-5.6 0-10-4.4-10-10z"/></svg>