<svg width="383" height="232" viewBox="0 0 383 232" fill="none" xmlns="http://www.w3.org/2000/svg">
<path d="M218.067 112.91H122.009V133.538H218.067V112.91Z" fill="#565661"/>
<path opacity="0.1" d="M218.067 112.91H122.009V133.538H218.067V112.91Z" fill="black"/>
<path d="M133.502 134.217L134.176 189.286L124.937 210.916L124.222 134.217H133.502Z" fill="#BCBEC9"/>
<path d="M123.022 116.871L216.546 117.392V132.756H123.022V116.871Z" fill="#565661"/>
<path d="M208.544 134.217L216.546 135.263V210.08L208.544 187.196V134.217Z" fill="#BCBEC9"/>
<path d="M264.658 113.737H219.586V202.559H264.658V113.737Z" fill="#EFEFF0"/>
<path d="M261.052 116.204H223.192V184.48H261.052V116.204Z" fill="#565661"/>
<path opacity="0.1" d="M261.052 116.204H223.192V184.48H261.052V116.204Z" fill="black"/>
<path d="M261.052 117.603H223.192V132.756H261.052V117.603Z" fill="#565661"/>
<path d="M261.052 134.217H223.192V166.401H261.052V134.217Z" fill="#565661"/>
<path d="M261.052 168.388H223.192V200.573H261.052V168.388Z" fill="#565661"/>
<path opacity="0.1" d="M261.052 168.388H223.192V200.573H261.052V168.388Z" fill="black"/>
<path d="M224.771 208.342C226.119 208.342 227.211 207.048 227.211 205.451C227.211 203.854 226.119 202.559 224.771 202.559C223.424 202.559 222.331 203.854 222.331 205.451C222.331 207.048 223.424 208.342 224.771 208.342Z" fill="#565661"/>
<path d="M258.612 208.48C259.96 208.48 261.052 207.186 261.052 205.589C261.052 203.992 259.96 202.697 258.612 202.697C257.264 202.697 256.172 203.992 256.172 205.589C256.172 207.186 257.264 208.48 258.612 208.48Z" fill="#565661"/>
<path d="M121.67 210.916H124.937L124.039 114.507H119.077L121.67 210.916Z" fill="#EFEFF0"/>
<path d="M216.546 113.737V210.08H219.586V114.507L216.546 113.737Z" fill="#EFEFF0"/>
<path d="M124.198 131.812V135.264H216.546V132.755L124.198 131.812Z" fill="#EFEFF0"/>
<path d="M130.458 107.259H247.533L264.546 112.483V115.513L118.515 114.469V111.386L130.458 107.259Z" fill="white"/>
<path d="M118.515 111.386L264.546 112.483V115.513L118.515 114.47V111.386Z" fill="#BCBEC9"/>
<path d="M131.743 147.317L131.065 147.223C131.065 147.194 131.065 147.169 131.065 147.144C131.045 146.996 131.021 146.852 130.997 146.704C131.275 146.908 131.539 147.113 131.783 147.317H131.743Z" fill="url(#paint0_linear_181_145)"/>
<path d="M117.013 195.849C117.454 195.755 117.901 195.676 118.349 195.619C121.421 195.214 124.555 195.642 127.371 196.852C127.086 198.794 126.805 200.802 127.408 202.679C127.828 203.999 128.672 205.193 128.852 206.57C129.304 206.642 129.726 206.83 130.071 207.112C130.415 207.394 130.667 207.759 130.8 208.166C130.931 208.527 130.996 208.905 130.994 209.285C130.99 209.756 130.926 210.224 130.804 210.681C130.763 211.046 130.57 211.381 130.266 211.616C129.962 211.851 129.571 211.966 129.177 211.938C126.554 212.215 123.982 211.256 121.541 210.316L116.797 208.487C116.241 208.273 115.682 208.056 115.149 207.792C114.14 207.287 113.244 206.607 112.509 205.79C112.354 205.644 112.245 205.462 112.194 205.262C112.106 204.709 112.804 204.379 113.248 204.005C113.378 203.891 113.492 203.762 113.587 203.622C114.112 202.886 114.163 201.871 114.478 201.003C115.224 198.945 117.529 197.618 118.342 195.61C118.386 195.5 118.427 195.39 118.461 195.277" fill="#A26565"/>
<path opacity="0.1" d="M130.994 209.285C130.99 209.756 130.926 210.224 130.804 210.681C130.763 211.046 130.57 211.381 130.266 211.616C129.962 211.851 129.571 211.966 129.177 211.938C126.554 212.215 123.982 211.256 121.541 210.316L116.797 208.487C116.241 208.273 115.682 208.056 115.149 207.792C114.14 207.287 113.244 206.607 112.509 205.79C112.354 205.644 112.245 205.462 112.194 205.262C112.106 204.709 112.804 204.379 113.248 204.005C113.378 203.891 113.492 203.762 113.587 203.622C114.895 203.882 116.519 204.646 117.518 204.942C118.52 205.195 119.481 205.568 120.379 206.051C121.626 206.793 122.524 207.937 123.582 208.88C124.639 209.823 126.005 210.681 127.479 210.565C128.259 210.456 129.01 210.215 129.696 209.854L130.994 209.285Z" fill="black"/>
<path d="M125.439 164.62C125.527 164.905 125.519 165.208 125.416 165.489C125.313 165.77 125.12 166.015 124.863 166.191C124.419 166.446 123.846 166.411 123.405 166.688C122.86 167.043 122.782 167.747 122.687 168.357C122.348 170.453 121.226 172.355 120.267 174.281C119.308 176.208 118.498 178.311 118.85 180.404C119.091 181.825 119.843 183.34 119.138 184.619C118.966 184.933 118.708 185.213 118.511 185.518C117.546 187.014 118.095 188.909 118.057 190.65C118.071 190.844 118.026 191.037 117.925 191.207C117.777 191.367 117.595 191.498 117.39 191.59C117.046 191.825 116.763 192.128 116.563 192.478C116.363 192.828 116.25 193.215 116.234 193.611C116.205 194.402 116.308 195.193 116.539 195.956C116.576 196.263 116.723 196.551 116.956 196.773C117.226 196.938 117.544 197.022 117.868 197.012C119.997 197.172 122.085 197.643 124.056 198.407C125.341 198.904 126.588 199.526 127.954 199.765C128.086 199.803 128.225 199.816 128.362 199.802C128.5 199.789 128.633 199.749 128.753 199.686C128.925 199.543 129.044 199.352 129.092 199.143C129.618 197.54 130.15 195.887 129.97 194.221C129.892 193.504 129.685 192.803 129.631 192.087C129.394 189.258 131.458 186.706 132.112 183.915C132.407 182.658 132.407 181.356 132.617 180.087C133.186 176.607 135.254 173.486 136.05 170.045C136.161 169.403 136.334 168.772 136.565 168.159C137.159 166.826 138.531 165.745 138.562 164.302C138.58 163.985 138.49 163.67 138.304 163.403C137.985 163.078 137.56 162.858 137.094 162.775C135.253 162.305 133.379 161.954 131.485 161.725C130.617 161.567 129.731 161.51 128.848 161.555C127.702 161.68 126.599 162.041 125.622 162.611C124.314 163.359 125.154 163.538 125.439 164.62Z" fill="#454B69"/>
<path opacity="0.05" d="M125.439 164.62C125.527 164.905 125.519 165.208 125.416 165.489C125.313 165.77 125.12 166.015 124.863 166.191C124.419 166.446 123.846 166.411 123.405 166.688C122.86 167.043 122.782 167.747 122.687 168.357C122.348 170.453 121.226 172.355 120.267 174.281C119.308 176.208 118.498 178.311 118.85 180.404C119.091 181.825 119.843 183.34 119.138 184.619C118.966 184.933 118.708 185.213 118.511 185.518C117.546 187.014 118.095 188.909 118.057 190.65C118.071 190.844 118.026 191.037 117.925 191.207C117.777 191.367 117.595 191.498 117.39 191.59C117.046 191.825 116.763 192.128 116.563 192.478C116.363 192.828 116.25 193.215 116.234 193.611C116.205 194.402 116.308 195.193 116.539 195.956C116.576 196.263 116.723 196.551 116.956 196.773C117.226 196.938 117.544 197.022 117.868 197.012C119.997 197.172 122.085 197.643 124.056 198.407C125.341 198.904 126.588 199.526 127.954 199.765C128.086 199.803 128.225 199.816 128.362 199.802C128.5 199.789 128.633 199.749 128.753 199.686C128.925 199.543 129.044 199.352 129.092 199.143C129.618 197.54 130.15 195.887 129.97 194.221C129.892 193.504 129.685 192.803 129.631 192.087C129.394 189.258 131.458 186.706 132.112 183.915C132.407 182.658 132.407 181.356 132.617 180.087C133.186 176.607 135.254 173.486 136.05 170.045C136.161 169.403 136.334 168.772 136.565 168.159C137.159 166.826 138.531 165.745 138.562 164.302C138.58 163.985 138.49 163.67 138.304 163.403C137.985 163.078 137.56 162.858 137.094 162.775C135.253 162.305 133.379 161.954 131.485 161.725C130.617 161.567 129.731 161.51 128.848 161.555C127.702 161.68 126.599 162.041 125.622 162.611C124.314 163.359 125.154 163.538 125.439 164.62Z" fill="black"/>
<path d="M118.806 211.988H115.915L114.024 175.957L113.892 173.907L116.349 173.106L116.515 175.284L118.806 211.988Z" fill="#565661"/>
<path opacity="0.1" d="M116.515 175.284L114.024 175.957L113.892 173.907L116.349 173.106L116.515 175.284Z" fill="black"/>
<path d="M155.08 219.61L150.312 220.145L128.343 173.907L122.419 173.505L112.015 176.321L109.991 231.372H105.223L107.1 174.31L95.6823 174.58L75.3068 221.619H70.972L92.4016 166.644L93.2285 164.525L125.164 163.51L133.125 167.65L133.227 167.888L155.08 219.61Z" fill="#565661"/>
<path opacity="0.1" d="M133.227 167.889C126.364 169.806 119.24 171.899 119.24 171.899C119.24 171.899 112.743 174.002 109.991 171.899C109.644 171.648 109.256 171.45 108.842 171.311C109.199 171.548 109.585 171.745 109.991 171.899L92.4015 166.641L93.225 164.525L125.164 163.51L133.125 167.65L133.227 167.889Z" fill="black"/>
<path d="M100.742 158.764L113.746 156.083C113.746 156.083 144.818 161.445 147.129 163.589C147.129 163.589 122.273 168.278 119.528 169.875C116.783 171.471 100.451 173.238 100.742 158.764Z" fill="white"/>
<path d="M95.1501 128.626C94.1334 131.615 91.3577 134.308 87.9787 134.437C87.7328 134.464 87.484 134.422 87.2636 134.318C86.8399 134.073 86.8298 133.497 87.0026 133.061C87.1755 132.624 87.4771 132.231 87.5245 131.772C87.5347 131.678 87.5278 131.584 87.5042 131.492C87.4161 131.118 87.0874 130.785 86.701 130.864C86.9641 130.668 87.1393 130.389 87.1926 130.081C87.2458 129.772 87.1733 129.456 86.9891 129.195C86.8357 129.034 86.6974 128.862 86.5756 128.679C86.2943 128.145 86.7315 127.544 86.9145 126.972C87.2907 125.715 86.335 124.458 86.257 123.147C86.1892 121.975 86.8298 120.872 86.9891 119.709C87.2433 117.823 86.2333 116.016 86.1147 114.133C86.0333 112.819 86.3824 111.518 86.7722 110.252C87.1111 109.12 87.494 107.976 87.5178 106.794C87.5178 105.936 87.3585 105.088 87.3144 104.233C87.2441 103.451 87.3972 102.666 87.7584 101.957C87.993 101.54 88.3927 101.224 88.8734 101.074C89.9851 100.728 90.7137 101.266 90.8764 102.243C91.1475 103.906 90.9916 105.603 91.3475 107.272C91.6765 108.833 92.175 110.359 92.8353 111.826C93.4352 113.153 94.1639 114.435 94.6248 115.808C94.9718 116.941 95.22 118.097 95.367 119.266C95.8212 122.406 96.177 125.637 95.1501 128.626Z" fill="#124612" fill-opacity="0.95"/>
<path d="M172.341 204.7C171.912 205.26 171.361 205.73 170.722 206.079C170.084 206.428 169.373 206.648 168.637 206.724C167.166 206.893 165.637 206.551 164.211 206.925C163.99 206.959 163.781 207.043 163.604 207.169C163.426 207.296 163.285 207.461 163.194 207.651C163.159 207.906 163.137 208.163 163.129 208.421C162.963 209.26 161.774 209.449 160.849 209.442L157.032 209.42C156.239 209.42 155.362 209.38 154.792 208.87C154.521 208.592 154.369 208.233 154.363 207.858C154.356 207.483 154.497 207.119 154.758 206.834C154.877 206.704 155.022 206.597 155.185 206.519C154.947 206.446 154.735 206.313 154.574 206.135C154.412 205.957 154.307 205.741 154.27 205.511C154.201 205.048 154.225 204.578 154.341 204.124C154.341 202.811 154.68 200.611 155.677 199.583C156.9 198.304 159.022 196.65 160.869 196.308C161.493 196.197 162.136 196.223 162.747 196.384C163.357 196.545 163.919 196.836 164.387 197.235C165.261 197.989 165.898 199.171 167.098 199.303C167.752 199.378 168.383 199.092 169.03 198.989C169.766 198.901 170.513 199.026 171.169 199.348C171.824 199.669 172.357 200.17 172.694 200.783C172.858 201.094 172.972 201.426 173.033 201.767C173.212 202.791 172.964 203.839 172.341 204.7Z" fill="#A26565"/>
<path opacity="0.1" d="M172.341 204.7C171.912 205.26 171.361 205.73 170.722 206.079C170.084 206.428 169.373 206.648 168.637 206.724C167.166 206.894 165.638 206.551 164.211 206.925C163.99 206.959 163.781 207.043 163.604 207.169C163.426 207.296 163.286 207.462 163.194 207.651C163.159 207.907 163.137 208.164 163.13 208.421C162.963 209.26 161.774 209.449 160.849 209.443L157.032 209.421C156.239 209.421 155.362 209.38 154.792 208.871C154.522 208.593 154.369 208.233 154.363 207.858C154.356 207.484 154.497 207.12 154.758 206.834C156.961 206.749 159.127 206.834 161.323 206.413C162.214 206.246 163.092 206.026 163.994 205.91C165.946 205.652 168.023 205.872 169.816 205.105C171.311 204.477 172.382 203.197 173.016 201.771C173.199 202.791 172.958 203.838 172.341 204.7Z" fill="black"/>
<path d="M162.272 199.731C160.916 200.705 159.327 201.466 157.619 201.547C155.911 201.629 154.097 200.919 153.26 199.542C152.037 197.521 153.121 194.711 151.623 192.857C151.156 192.275 150.481 191.864 149.986 191.301C149.492 190.738 149.207 189.893 149.648 189.296C149.115 189.484 148.553 189.007 148.397 188.497C148.241 187.988 148.339 187.441 148.244 186.926C147.997 185.559 146.55 184.682 145.855 183.469C145.16 182.255 145.255 180.681 145.177 179.244C145.004 175.745 143.599 172.394 141.178 169.705C140.717 169.196 140.127 168.677 139.409 168.703C139.534 167.552 138.707 166.452 137.636 165.874C136.565 165.296 135.291 165.101 134.051 164.988C121.535 163.844 108.493 168.159 96.5431 164.529C93.2183 163.52 90.0122 161.832 87.9787 159.186C87.1866 158.178 86.6199 157.034 86.312 155.821C86.0041 154.607 85.9612 153.349 86.1859 152.12V152.076C86.657 149.844 87.9279 149.294 90.0325 148.276C92.4622 147.085 95.0017 146.097 97.6208 145.325C102.705 143.851 108.178 143.319 113.424 144.401C115.875 144.91 118.237 145.752 120.691 146.246C121.657 146.441 122.629 146.579 123.609 146.695C125.13 146.871 126.659 146.987 128.191 147.151C133.089 147.674 137.913 148.68 142.581 150.152C144.32 150.699 146.058 151.325 147.553 152.315C148.735 153.111 149.735 154.118 150.494 155.276C151.252 156.433 151.755 157.72 151.972 159.06C152.115 159.984 152.118 160.946 152.335 161.841C152.541 162.594 152.813 163.33 153.149 164.042C156.044 170.682 158.411 177.51 160.228 184.471C160.332 184.988 160.523 185.487 160.794 185.948C161.228 186.599 161.974 187.036 162.411 187.687C163.428 189.22 162.448 191.361 163.35 192.957C163.662 193.511 164.18 193.948 164.492 194.501C165.509 196.314 164.007 198.483 162.272 199.731Z" fill="#454B69"/>
<path opacity="0.1" d="M144.954 163.617C145.435 163.263 145.851 162.839 146.184 162.36C146.518 161.879 146.65 161.301 146.557 160.735C146.689 161.45 146.638 162.185 146.409 162.879C146.18 163.573 145.779 164.208 145.238 164.733C144.388 165.541 142.791 166.333 141.547 166.056C141.724 165.132 144.164 164.239 144.954 163.617Z" fill="black"/>
<path opacity="0.1" d="M123.778 147.952C123.676 148.289 123.485 148.597 123.222 148.849C122.959 149.1 122.633 149.287 122.273 149.392C121.551 149.597 120.794 149.679 120.04 149.634H119.362C110.469 149.452 101.481 147.622 92.7946 149.367C91.7478 149.567 90.7207 149.848 89.7241 150.206C88.4544 150.67 87.2655 151.305 86.196 152.092V152.048C86.6671 149.816 87.938 149.266 90.0427 148.248C92.4701 147.067 95.0062 146.089 97.6208 145.325C102.704 143.851 108.178 143.319 113.424 144.401C115.875 144.91 118.237 145.752 120.691 146.246C121.657 146.441 122.629 146.579 123.609 146.695C123.799 147.089 123.858 147.527 123.778 147.952Z" fill="black"/>
<path d="M123.778 147.503C123.677 147.84 123.486 148.149 123.223 148.401C122.96 148.653 122.634 148.84 122.273 148.945C121.551 149.151 120.794 149.231 120.04 149.184H119.362C110.469 149.002 101.481 147.172 92.7946 148.917C91.7482 149.117 90.7213 149.397 89.7241 149.753C88.3944 150.245 87.1542 150.923 86.0469 151.764C85.787 151.102 85.5283 150.439 85.2707 149.775C84.9589 148.983 85.9486 148.807 86.1384 148.097C86.2638 147.616 86.0503 147.069 85.9418 146.556C85.914 146.431 85.8959 146.304 85.8876 146.176C85.8266 145.042 86.2638 144.388 87.267 143.775C90.2426 141.952 93.8724 140.701 97.2683 139.761C99.0737 139.232 100.939 138.897 102.826 138.762C105.497 138.617 108.164 139.076 110.764 139.658C113.96 140.39 117.122 141.358 119.955 142.907C121.345 143.659 122.7 144.601 123.449 145.94C123.748 146.411 123.864 146.962 123.778 147.503Z" fill="#A26565"/>
<path opacity="0.1" d="M95.1501 128.626C94.1334 131.615 91.3577 134.308 87.9787 134.437C87.7328 134.464 87.484 134.422 87.2636 134.318C86.84 134.073 86.8298 133.497 87.0026 133.06C87.1755 132.624 87.4771 132.231 87.5246 131.772C87.5347 131.678 87.5278 131.584 87.5042 131.492C89.2971 129.147 91.0357 126.778 91.7237 124.002C91.863 123.524 91.9055 123.027 91.8491 122.534C91.7576 121.969 91.4492 121.456 91.2797 120.91C90.9815 119.941 91.1204 118.917 91.2052 117.914C91.5581 113.499 90.7631 109.07 88.887 104.999C88.4295 104.019 87.9075 103.026 87.7482 101.979C87.9829 101.562 88.3825 101.246 88.8633 101.096C89.9749 100.75 90.7036 101.288 90.8663 102.265C91.1374 103.928 90.9815 105.625 91.3373 107.294C91.6664 108.855 92.1649 110.38 92.8252 111.848C93.4251 113.175 94.1537 114.457 94.6146 115.83C94.9617 116.962 95.2099 118.119 95.3569 119.288C95.8212 122.406 96.177 125.637 95.1501 128.626Z" fill="black"/>
<path opacity="0.1" d="M123.778 147.503C123.677 147.84 123.486 148.149 123.223 148.401C122.96 148.653 122.634 148.84 122.273 148.946C121.551 149.151 120.794 149.232 120.04 149.184H119.362C116.467 147.401 112.987 146.622 109.534 146.984C108.429 147.107 107.324 147.346 106.219 147.251C103.986 147.063 102.176 145.573 100.186 144.621C97.9225 143.584 95.3764 143.198 92.8745 143.513C90.3727 143.828 88.0294 144.829 86.1451 146.387L85.952 146.544C85.9241 146.419 85.906 146.292 85.8977 146.164C85.8367 145.029 86.2739 144.376 87.2771 143.763C90.2528 141.94 93.8825 140.689 97.2785 139.749C99.0838 139.22 100.949 138.884 102.837 138.75C105.507 138.605 108.175 139.064 110.774 139.645C113.97 140.378 117.132 141.346 119.965 142.895C121.345 143.659 122.7 144.602 123.449 145.941C123.748 146.411 123.864 146.963 123.778 147.503Z" fill="black"/>
<path d="M131.38 113.074L131.333 113.187C130.573 115.013 129.177 116.556 128.282 118.335C127.154 120.589 126.876 123.116 126.625 125.593C126.408 127.714 126.195 129.848 126.368 131.976C126.801 137.219 129.563 142.191 130.302 147.333C130.484 148.521 130.531 149.723 130.441 150.919C130.38 151.677 130.231 152.491 129.689 153.05C129.147 153.61 128.093 153.83 127.51 153.292C127.771 152.83 128.035 152.371 128.299 151.909C126.75 150.793 124.419 151.595 122.609 150.897C121.813 150.583 121.175 150.017 120.508 149.511C118.984 148.362 117.228 147.507 115.343 146.997C113.458 146.486 111.481 146.33 109.53 146.538C108.425 146.664 107.321 146.902 106.216 146.808C103.982 146.616 102.172 145.13 100.183 144.177C97.9193 143.141 95.3735 142.755 92.8719 143.07C90.3703 143.384 88.0268 144.383 86.1418 145.941C85.6673 146.349 85.0302 146.827 84.4472 146.569C84.2219 146.441 84.0399 146.257 83.9219 146.038C81.702 142.521 83.3356 137.986 85.708 134.56C88.0804 131.134 91.2221 127.975 92.1982 124.005C92.3391 123.528 92.3817 123.03 92.3236 122.538C92.2321 121.972 91.9237 121.46 91.7542 120.913C91.456 119.945 91.5949 118.92 91.6797 117.917C92.0352 113.502 91.2426 109.072 89.3683 104.999C88.826 103.827 88.1821 102.639 88.1821 101.366C88.1821 99.3608 89.7309 97.6982 91.012 96.0858C92.4863 94.2314 93.7233 92.179 95.5907 90.6546C97.3599 89.2057 99.9221 88.3193 102.111 89.0548C105.832 88.2172 109.661 87.8712 113.485 88.027C114.807 88.0836 116.173 88.2125 117.332 88.8065C118.572 89.4351 119.464 90.5541 120.684 91.2235C121.575 91.717 122.602 91.9496 123.571 92.2953C126.248 93.2647 128.457 95.0972 129.794 97.4562C131.15 99.892 131.489 102.692 131.787 105.421C132.071 107.988 132.343 110.657 131.38 113.074Z" fill="#124612" fill-opacity="0.95"/>
<path opacity="0.1" d="M126.368 131.976C126.801 137.218 129.563 142.191 130.302 147.333C128.825 146.173 126.767 145.007 126.493 143.659C126.188 142.2 125.212 140.289 125.049 138.815C124.886 137.341 126.001 135.54 124.832 134.528C124.263 134.035 125.778 134.173 125.222 133.667C123.971 132.538 123.663 130.8 123.585 129.188C123.453 126.334 123.843 123.449 123.277 120.642C122.938 118.91 122.229 117.26 121.663 115.579C121.006 113.621 120.531 111.615 120.057 109.607C119.59 107.821 119.25 106.009 119.04 104.182C118.894 102.61 118.962 100.945 119.718 99.5115C120.474 98.0782 122.002 96.9153 123.717 96.9373C129.452 97.0065 128.462 104.217 129.723 107.548C130.228 108.875 130.909 110.157 131.183 111.54C131.284 112.082 131.338 112.631 131.346 113.181C130.587 115.007 129.191 116.55 128.296 118.329C127.167 120.582 126.889 123.109 126.639 125.586C126.408 127.714 126.195 129.848 126.368 131.976Z" fill="black"/>
<path d="M130.096 107.467C130.601 108.793 131.282 110.075 131.556 111.458C132.014 113.775 131.305 116.236 132.075 118.48C132.275 118.959 132.443 119.449 132.576 119.948C132.709 120.661 132.556 121.39 132.556 122.116C132.556 123.285 132.953 124.417 133.305 125.539C134.497 129.352 135.286 133.264 135.661 137.219C135.717 138.281 135.897 139.335 136.199 140.362C136.342 140.709 136.464 141.064 136.565 141.424C136.656 141.904 136.678 142.394 136.63 142.879C136.538 144.419 136.352 145.966 136.538 147.499C136.725 149.033 137.328 150.589 138.572 151.617C137.46 151.84 136.284 152.063 135.2 151.733C133.675 151.271 132.759 149.847 131.983 148.552C131 146.899 127.266 145.409 126.879 143.552C126.578 142.096 125.602 140.186 125.439 138.708C125.276 137.231 126.388 135.436 125.219 134.424C124.653 133.931 126.168 134.066 125.608 133.563C124.361 132.435 124.053 130.697 123.975 129.081C123.843 126.23 124.229 123.345 123.666 120.538C123.327 118.807 122.619 117.157 122.053 115.472C121.396 113.517 120.921 111.512 120.447 109.5C119.978 107.715 119.639 105.902 119.43 104.075C119.284 102.504 119.349 100.835 120.108 99.4015C120.867 97.9683 122.395 96.8085 124.107 96.8274C129.818 96.9217 128.835 104.135 130.096 107.467Z" fill="#124612" fill-opacity="0.95"/>
<path opacity="0.1" d="M113.753 108.695C114.289 109.277 114.977 109.915 115.787 109.802C115.725 109.892 115.628 109.957 115.516 109.981C115.404 110.006 115.286 109.989 115.187 109.934C114.992 109.814 114.837 109.648 114.736 109.453L113.577 107.639C113.424 107.404 112.374 106.03 112.116 106.822C112.015 107.158 113.492 108.412 113.753 108.695Z" fill="black"/>
<path opacity="0.1" d="M113.13 113.219C113.096 112.626 112.827 112.066 112.374 111.647C111.966 111.304 111.491 111.039 110.974 110.864C109.703 110.38 108.198 109.991 106.819 110.054C107.321 110.732 108.93 111.138 109.737 111.521C110.88 112.068 112.011 112.634 113.13 113.219Z" fill="black"/>
<path opacity="0.1" d="M116.739 126.092C116.505 127.701 115.085 128.921 113.648 129.864C112.211 130.807 110.598 131.618 109.659 132.982C109.008 133.925 108.717 135.018 108.164 136.002C107.554 137.086 106.643 137.998 105.914 139.016C105.185 140.035 104.616 141.251 104.84 142.458C104.843 142.513 104.858 142.568 104.885 142.617C104.912 142.667 104.95 142.711 104.996 142.747C105.065 142.774 105.142 142.785 105.217 142.777C105.292 142.769 105.364 142.744 105.426 142.703C106.904 141.986 107.487 140.349 108.107 138.931C108.758 137.501 109.491 136.103 110.303 134.745C110.669 134.116 111.072 133.431 111.754 133.082C112.22 132.902 112.698 132.748 113.184 132.62C113.873 132.327 114.478 131.886 114.949 131.335C116.8 129.288 117.766 126.677 117.661 124.008C117.64 123.446 117.607 120.736 116.695 121.572C115.783 122.408 116.895 124.998 116.739 126.092Z" fill="black"/>
<path d="M118.972 64.3723C121.887 65.5509 124.395 68.144 124.304 71.0827C124.226 74.1692 121.44 77.0765 122.399 80.0341C122.955 81.7502 124.629 82.9005 125.954 84.2049C131 89.1583 130.99 97.8048 125.927 102.749C123.988 104.635 121.497 105.977 119.447 107.778C112.218 114.095 111.909 125.023 115.78 133.507C112.814 134.101 109.792 134.417 106.758 134.449C105.338 134.449 103.599 134.226 103.084 132.997C102.61 131.863 103.423 130.329 102.488 129.49C102.047 129.097 101.386 129.043 100.793 128.952C96.9769 128.38 93.8453 125.555 92.4151 122.226C90.9849 118.898 91.0594 115.151 91.8796 111.65C92.4626 109.12 93.3742 106.335 92.022 104.072C90.3274 101.224 85.4538 100.024 85.5284 96.7676C85.5894 94.0991 88.9819 92.8011 90.9069 90.8178C94.4588 87.1656 92.7676 81.4987 92.7608 76.5767C92.7608 72.2456 94.3944 67.7762 97.8716 64.8909C103.043 60.563 113.004 61.9679 118.972 64.3723Z" fill="#A26565"/>
<g opacity="0.1">
<path opacity="0.1" d="M92.5778 100.845C91.0899 98.3553 87.1823 97.1232 86.274 94.6748C85.8196 95.2462 85.5642 95.9327 85.5419 96.6423C85.4674 99.8985 90.3342 101.099 92.0355 103.95C92.5942 104.959 92.8294 106.096 92.7133 107.225C93.2488 105.037 93.7199 102.756 92.5778 100.845Z" fill="black"/>
<path opacity="0.1" d="M122.789 76.0051C123.399 74.355 124.283 72.6892 124.327 70.9762C124.333 70.7906 124.328 70.6049 124.31 70.4199C123.629 72.312 122.585 74.1476 122.789 76.0051Z" fill="black"/>
<path opacity="0.1" d="M93.1607 84.7962C94.3266 81.3798 93.32 77.1429 93.3166 73.3524C93.3166 72.8936 93.337 72.4315 93.3743 71.9727C92.9727 73.4375 92.77 74.9432 92.771 76.4546C92.7778 79.1608 93.2895 82.0964 93.1607 84.7962Z" fill="black"/>
<path opacity="0.1" d="M126.493 99.5337C124.554 101.42 122.063 102.762 120.013 104.563C116.353 107.759 114.472 112.137 114.001 116.78C114.875 113.322 116.641 110.138 119.471 107.665C121.504 105.873 124.012 104.537 125.951 102.636C128.257 100.305 129.596 97.2914 129.73 94.1309C129.144 96.1505 128.033 98.0059 126.493 99.5337Z" fill="black"/>
<path opacity="0.1" d="M107.324 131.225C105.904 131.225 104.165 130.999 103.65 129.77C103.176 128.638 103.989 127.104 103.054 126.262C102.613 125.869 101.949 125.816 101.359 125.725C97.5463 125.156 94.4147 122.327 92.9845 119.002C91.9305 116.544 91.7034 113.863 91.9678 111.216C91.9406 111.32 91.9169 111.424 91.8932 111.531C91.0866 115.032 91.0018 118.782 92.4287 122.11C93.8555 125.439 96.9905 128.264 100.803 128.833C101.407 128.924 102.071 128.981 102.498 129.37C103.443 130.213 102.62 131.747 103.094 132.878C103.609 134.107 105.348 134.349 106.768 134.333C109.802 134.301 112.825 133.985 115.79 133.39C115.372 132.473 115.006 131.537 114.695 130.584C112.261 130.985 109.796 131.199 107.324 131.225Z" fill="black"/>
</g>
<path opacity="0.1" d="M118.423 117.518C119.26 118.103 120.169 115.874 119.65 115.318C119.511 115.462 118.295 117.436 118.423 117.518Z" fill="black"/>
<path opacity="0.1" d="M121.992 157.856C122.978 157.542 124.026 157.227 124.67 156.473C125.202 155.866 125.639 153.459 124.514 154.612C123.558 155.602 123.107 156.907 121.992 157.856Z" fill="black"/>
<path opacity="0.1" d="M132.034 155.332C131.916 156.074 131.695 156.844 131.129 157.378C131.024 157.479 130.79 157.542 130.76 157.407C131.392 157.094 131.98 156.71 132.509 156.262C133.654 155.21 133.81 152.617 132.065 151.928C132.048 153.066 132.221 154.176 132.034 155.332Z" fill="black"/>
<path d="M144.089 150.658C144.089 150.658 134.471 147.154 130.994 147.515C127.516 147.877 134.932 152.959 134.932 152.959L139.365 155.731C139.365 155.731 142.076 154.788 142.256 154.716C142.435 154.644 144.089 150.658 144.089 150.658Z" fill="#454B69"/>
<path d="M77.9096 113.061C77.9096 113.061 85.1353 109.176 94.6723 114.004C104.209 118.832 105.799 147.242 105.799 147.242C105.799 147.242 101.898 176.186 116.939 169.746C116.939 169.746 144.391 161.841 147.14 163.582C147.14 163.582 149.742 163.582 144.54 164.654C139.338 165.726 119.24 171.632 119.24 171.632C119.24 171.632 112.743 173.738 109.991 171.632C107.239 169.526 99.4408 171.902 98.4275 157.425C97.7568 148.302 96.5508 139.22 94.8146 130.219L92.1338 122.849L77.9096 113.061Z" fill="#565661"/>
<path d="M77.042 157.825C77.042 157.825 80.221 128.475 75.0085 117.886C70.4738 108.658 88.0092 112.973 92.5846 114.231C93.2927 114.427 93.9102 114.836 94.3401 115.394C97.0515 118.929 106.778 133.101 103.911 152.063C103.911 152.063 102.755 168.951 109.981 171.629L87.7178 164.978C85.9113 164.438 84.0778 163.988 82.2273 163.598C79.8685 163.102 76.0252 161.69 77.042 157.825Z" fill="white"/>
<path d="M235.386 212.617H238.277L240.171 176.585L240.3 174.536L237.843 173.734L237.68 175.912L235.386 212.617Z" fill="#565661"/>
<path opacity="0.1" d="M237.68 175.912L240.171 176.585L240.3 174.536L237.843 173.734L237.68 175.912Z" fill="black"/>
<path d="M211.249 198.703C211.177 199.196 211.041 199.68 210.842 200.142C210.636 200.746 210.195 201.257 209.605 201.575C209.208 201.727 208.783 201.805 208.354 201.805C206.758 201.893 205.07 201.871 203.697 201.117C203.113 200.767 202.577 200.352 202.101 199.881C199.017 197.039 196.213 193.947 193.723 190.641C193.306 190.084 192.876 189.428 193.062 188.755C196.287 187.925 199.35 186.626 202.135 184.905C202.519 184.631 202.95 184.419 203.409 184.276C204.196 184.12 205.006 184.093 205.802 184.194C206.571 184.311 206.605 184.333 206.9 185.137C207.388 186.498 207.307 187.966 207.856 189.327C208.204 190.079 208.629 190.799 209.124 191.477C210.54 193.674 211.628 196.267 211.249 198.703Z" fill="#A26565"/>
<path opacity="0.1" d="M211.248 198.702C211.177 199.196 211.041 199.679 210.842 200.142C210.636 200.746 210.195 201.257 209.605 201.575C209.208 201.727 208.783 201.805 208.354 201.805C206.758 201.893 205.07 201.871 203.697 201.116C203.113 200.767 202.577 200.352 202.101 199.881C199.017 197.039 196.213 193.946 193.723 190.641C193.306 190.084 192.876 189.427 193.062 188.755C194.114 188.484 195.151 188.163 196.167 187.793L196.218 187.828C197.258 188.516 198.014 189.503 198.749 190.471L201.122 193.567C201.545 194.175 202.044 194.734 202.61 195.233C203.311 195.754 204.085 196.186 204.911 196.515C206.026 197.015 207.141 197.514 208.3 197.917C209.049 198.196 210.316 198.306 211.248 198.702Z" fill="black"/>
<path d="M213.438 165.138C213.204 165.66 212.921 166.162 212.591 166.637C209.441 171.543 207.011 176.816 205.365 182.318C204.897 182.221 204.633 182.811 204.636 183.261C204.64 183.71 204.636 184.276 204.189 184.44C204.057 184.487 203.908 184.487 203.779 184.54C203.494 184.66 203.413 184.996 203.372 185.285L202.972 188.007C202.833 188.95 202.711 189.971 203.209 190.804C203.553 191.299 203.999 191.727 204.521 192.061L211.137 196.902C211.408 197.1 211.743 197.31 212.069 197.2C212.811 196.949 212.153 195.717 212.746 195.217C213.14 194.874 213.763 195.132 214.309 195.091C215.021 195.041 215.559 194.434 215.739 193.796C215.865 193.147 215.878 192.482 215.776 191.829C215.732 191.531 215.769 191.227 215.885 190.946C216.087 190.648 216.365 190.4 216.695 190.226C217.843 189.448 218.768 188.422 219.389 187.236C220.01 186.051 220.308 184.742 220.257 183.424C220.203 183.023 220.219 182.617 220.304 182.221C220.442 181.858 220.65 181.521 220.918 181.227C223.321 178.213 225.324 174.941 227.313 171.676C228.459 169.79 229.624 167.876 230.024 165.751C230.059 165.672 230.073 165.587 230.066 165.502C230.059 165.416 230.031 165.334 229.984 165.261C229.936 165.188 229.871 165.126 229.793 165.08C229.716 165.034 229.628 165.006 229.536 164.997C228.544 164.709 227.532 164.485 226.506 164.324C223.392 163.74 220.386 162.837 217.356 161.97C214.326 161.103 214.35 162.869 213.438 165.138Z" fill="#454B69"/>
<path d="M199.112 220.239L203.884 220.773L225.849 174.536L231.773 174.134L242.181 176.95L244.201 232H248.97L247.092 174.938L258.51 175.208L278.886 222.247H283.22L261.791 167.272L260.967 165.154L229.028 164.139L221.067 168.278L220.965 168.517L199.112 220.239Z" fill="#565661"/>
<path opacity="0.1" d="M220.965 168.517C227.828 170.434 234.952 172.527 234.952 172.527C234.952 172.527 241.449 174.63 244.201 172.527C244.548 172.276 244.936 172.078 245.35 171.94C244.993 172.176 244.607 172.373 244.201 172.527L261.791 167.269L260.977 165.154L229.038 164.139L221.077 168.278L220.965 168.517Z" fill="black"/>
<path d="M253.45 159.393L240.446 156.712C240.446 156.712 209.374 162.074 207.063 164.217C207.063 164.217 231.919 168.907 234.664 170.504C237.409 172.1 253.742 173.867 253.45 159.393Z" fill="white"/>
<path d="M205.196 202.478C204.413 203.86 202.484 204.25 200.79 204.272C198.437 204.299 196.1 203.912 193.903 203.131C192.649 202.685 191.446 202.11 190.151 201.783C188.223 201.293 186.084 201.333 184.39 200.35C183.491 199.794 182.748 199.047 182.224 198.172C182.126 198.018 182.031 197.857 181.943 197.694C181.133 196.232 180.756 194.532 181.207 192.954C181.658 191.376 183.295 189.638 185.193 189.663C187.447 189.695 190.134 190.685 192.31 191.197C195.021 191.826 197.733 192.552 200.129 193.881C202.135 195 203.908 196.606 204.853 198.568C205.035 198.946 205.185 199.337 205.301 199.737C205.595 200.642 205.663 201.651 205.196 202.478Z" fill="#A26565"/>
<path opacity="0.1" d="M205.196 202.478C204.413 203.861 202.484 204.25 200.79 204.272C198.437 204.299 196.1 203.912 193.903 203.131C192.649 202.685 191.446 202.11 190.151 201.783C188.223 201.293 186.084 201.333 184.39 200.35C183.491 199.794 182.748 199.047 182.224 198.172C182.126 198.018 182.031 197.857 181.943 197.694C182.282 197.719 182.593 197.75 182.763 197.766C184.844 197.952 186.83 198.656 188.816 199.187C191.573 199.925 194.42 200.337 197.289 200.413C199.322 200.466 201.444 200.328 203.22 199.407C203.75 199.097 204.3 198.816 204.867 198.568C205.049 198.946 205.198 199.337 205.314 199.737C205.595 200.642 205.663 201.651 205.196 202.478Z" fill="black"/>
<path d="M219.759 142.716C215.353 142.046 210.866 141.883 206.399 141.719L200.935 141.518C200.547 141.476 200.153 141.521 199.786 141.647C199.471 141.835 199.17 142.046 198.888 142.276C198.339 142.621 197.638 142.659 196.977 142.694C192.289 142.933 187.626 143.494 183.027 144.372C180.655 144.822 178.191 145.409 176.408 146.927C174.524 148.533 173.697 150.982 173.632 153.352C173.568 155.722 174.239 158.051 174.947 160.326C175.849 163.065 176.347 165.905 176.429 168.768C176.397 169.563 176.43 170.358 176.527 171.148C176.685 171.901 176.924 172.639 177.242 173.348L179.736 179.524C179.957 180.064 180.173 180.602 180.414 181.13C180.655 181.658 180.885 182.073 181.092 182.569C181.397 183.248 181.638 183.952 181.878 184.653L183.539 189.49L183.756 190.119C184.356 191.86 184.969 193.633 186.101 195.129C187.233 196.625 188.985 197.832 190.954 197.923C191.59 197.901 192.226 197.917 192.859 197.97C193.399 198.092 193.923 198.268 194.421 198.495C195.9 199.065 197.487 199.352 199.088 199.341C200.563 199.341 202.2 198.96 202.999 197.81C203.44 197.181 203.555 196.408 203.677 195.666C203.891 194.177 204.097 192.621 203.552 191.206C203.213 190.361 202.643 189.635 202.25 188.802C201.701 187.667 201.522 186.413 201.166 185.216C200.396 182.638 198.829 180.326 196.658 178.565C195.887 175.735 195.321 172.86 194.964 169.96C194.914 169.317 194.776 168.684 194.554 168.074C194.157 167.131 193.354 166.367 193.018 165.405C192.703 164.513 192.798 163.482 192.225 162.712C196.994 163.928 201.715 163.655 206.666 163.582C208.252 163.587 209.836 163.503 211.411 163.331C212.145 163.206 212.889 163.133 213.634 163.111C215.166 163.111 216.603 163.739 218.01 164.293C221.985 165.864 226.174 167.099 230.492 167.269C234.949 167.442 239.355 166.471 243.71 165.509C245.625 165.085 247.614 164.626 249.132 163.46C250.651 162.294 251.505 160.191 250.569 158.591C249.858 157.387 248.383 156.797 247.007 156.294C243.198 154.898 239.368 153.537 235.698 151.849C230.092 149.316 225.9 143.659 219.759 142.716Z" fill="#454B69"/>
<path d="M211.903 128.497C211.371 129.566 210.476 130.439 209.815 131.445C208.709 133.101 208.345 135.091 208.798 136.993C209.036 137.932 209.504 138.809 210.165 139.555C210.826 140.301 211.663 140.896 212.611 141.295C213.457 141.608 214.347 141.807 215.255 141.886C216.447 142.021 217.718 142.05 218.772 141.515C219.561 141.076 220.209 140.449 220.647 139.699C221.558 138.284 222.077 136.691 222.551 135.104C223.429 132.174 224.178 129.169 224.07 126.13C224.032 125.084 223.809 123.905 222.873 123.301C222.39 123.043 221.855 122.88 221.301 122.824L216.83 122.082C215.966 121.937 214.458 121.35 213.709 121.928C212.96 122.506 212.902 124.216 212.774 125.018C212.57 126.202 212.445 127.406 211.903 128.497Z" fill="#A1616A"/>
<path d="M266.241 116.34L265.071 125.429C264.829 127.05 264.69 128.683 264.655 130.32C264.655 131.231 264.685 132.243 264.034 132.925C263.716 133.236 263.313 133.46 262.868 133.576C261.448 133.985 259.9 133.62 258.544 133.057C257.751 132.743 256.941 132.287 256.582 131.555C256.373 131.047 256.286 130.503 256.327 129.961C256.327 124.54 256.88 118.885 259.933 114.265C260.194 113.812 260.561 113.419 261.008 113.115C261.855 112.612 262.963 112.753 263.923 113.027C264.512 113.193 266.105 113.379 266.481 113.866C266.858 114.353 266.322 115.714 266.241 116.34Z" fill="#A1616A"/>
<path d="M235.22 83.4697C241.958 83.4697 247.421 78.4038 247.421 72.1548C247.421 65.9057 241.958 60.8398 235.22 60.8398C228.482 60.8398 223.019 65.9057 223.019 72.1548C223.019 78.4038 228.482 83.4697 235.22 83.4697Z" fill="#A1616A"/>
<path d="M231.956 89.017C231.912 89.8973 231.654 90.757 231.2 91.5315C237.43 90.6514 243.643 89.6708 249.841 88.5896C247.784 87.6093 246.23 85.9145 245.516 83.875C245.179 82.7814 244.995 81.6522 244.967 80.5151C244.869 78.7118 244.906 76.9044 245.079 75.106C242.91 75.3165 240.856 76.0709 238.789 76.7183C236.71 77.3698 234.596 77.9185 232.454 78.3621C231.421 78.5759 230.38 78.7582 229.336 78.9279C228.116 79.129 227.53 79.1259 228.377 80.1191C230.651 82.7718 232.275 85.4685 231.956 89.017Z" fill="#A1616A"/>
<path d="M235.705 87.5052C234.095 87.7283 232.407 87.9798 231.122 88.9038C230.634 89.2933 230.168 89.7077 229.729 90.1453C227.177 92.4429 223.575 93.367 220.477 94.9888C219.972 95.2204 219.524 95.5468 219.162 95.9474C218.823 96.3843 218.65 96.9406 218.295 97.3743C217.881 97.8772 217.227 98.1915 216.905 98.7478C216.583 99.3041 216.654 99.895 216.62 100.486C216.542 101.784 216.014 103.016 215.604 104.258C213.723 110.201 214.753 116.83 211.906 122.443C212.037 122.767 212.237 123.062 212.495 123.312C212.752 123.561 213.061 123.76 213.404 123.895C214.12 124.135 214.868 124.284 215.627 124.338L221.934 125.064C222.836 125.168 223.792 125.266 224.615 124.917C223.862 126.843 223.329 128.837 223.026 130.867C222.872 132.107 222.635 133.337 222.314 134.55C221.446 137.316 219.264 139.62 216.678 141.195C216.352 141.353 216.077 141.588 215.881 141.877C215.543 142.505 216.044 143.209 216.4 143.825C217.434 145.61 217.291 147.754 217.278 149.778C217.264 151.802 217.485 154.024 219.01 155.476C219.911 156.335 221.145 156.8 222.345 157.243L232.21 160.898C233.838 161.541 235.518 162.067 237.233 162.47C239.833 163.02 242.534 162.998 245.201 162.891C246.963 162.822 248.723 162.717 250.481 162.577C251.18 162.574 251.868 162.407 252.477 162.089C253.002 161.705 253.406 161.197 253.647 160.618C255.019 157.849 255.48 154.618 257.609 152.299C259.069 150.705 261.337 149.432 261.503 147.349C261.581 146.311 261.082 145.302 261.076 144.262C261.076 142.983 261.798 141.767 261.753 140.49C261.662 138.413 259.551 136.829 259.215 134.773C258.361 129.562 261.215 124.357 262.967 119.344C263.282 118.448 263.689 117.458 264.617 117.075C265.546 116.691 266.854 116.893 267.186 116.044C268.023 113.913 268.223 111.414 268.115 109.148C268.054 107.837 267.552 106.555 267.61 105.241C267.651 104.317 267.969 103.418 268.054 102.497C268.183 101.105 267.786 99.7222 267.376 98.377C267.258 97.8967 267.08 97.4306 266.847 96.9877C266.597 96.586 266.302 96.2099 265.966 95.8657L264.316 94.0458C263.543 93.1941 262.726 92.3109 261.604 91.8803C261.242 91.0474 260.083 90.4722 259.252 90.0133C258.415 89.5729 257.551 89.1793 256.663 88.8347L247.329 85.0128C246.98 84.8499 246.607 84.7375 246.221 84.6796C245.653 84.6619 245.088 84.7697 244.574 84.9939C241.727 86.0405 238.755 87.084 235.705 87.5052Z" fill="#124612" fill-opacity="0.95"/>
<path d="M225.818 74.1221C225.459 72.9497 224.541 71.9377 224.402 70.7245C224.276 69.6464 224.788 68.6029 225.08 67.5531C225.371 66.5034 225.361 65.221 224.463 64.5232C224.314 64.4038 224.124 64.297 224.07 64.1209C223.961 63.8066 224.303 63.5206 224.409 63.2032C224.602 62.5746 223.765 61.88 224.07 61.2765C224.242 60.9465 224.676 60.8302 225.056 60.7265C226.506 60.3273 227.977 59.441 228.293 58.0674C229.428 58.5075 230.638 57.6809 231.509 56.8794C232.38 56.0779 233.451 55.1633 234.651 55.4053L234.383 55.9113C236.233 55.2885 238.256 55.2674 240.121 55.8516H239.551C241.187 55.8773 242.773 56.375 244.089 57.2754C243.944 57.2754 243.93 57.4766 243.988 57.5897C244.462 58.6175 245.682 59.1612 246.858 59.4158C247.567 59.573 248.336 59.6861 248.854 60.1576C249.373 60.629 249.383 61.6128 248.699 61.8391C250.095 62.3432 251.417 63.0085 252.633 63.8192C252.972 64.0487 253.355 64.3598 253.311 64.7621C253.263 64.9641 253.192 65.161 253.101 65.3499C253.033 65.6854 253.058 66.0312 253.172 66.3556L253.548 67.7951C253.962 69.395 254.287 71.3216 253.03 72.4814C253.501 73.297 253.675 74.2315 253.528 75.1464C253.381 76.0613 252.92 76.9078 252.213 77.5606C252.313 77.8414 252.347 78.1386 252.314 78.4326C252.281 78.7267 252.181 79.0109 252.021 79.2666C251.861 79.5222 251.644 79.7435 251.385 79.9159C251.126 80.0883 250.831 80.2079 250.519 80.2667C250.935 80.8702 250.552 81.7314 249.895 82.1085C249.237 82.4857 248.41 82.4888 247.645 82.4228C246.879 82.3568 246.102 82.1965 245.337 82.3034C244.221 82.4637 243.13 83.1677 242.056 82.8534C241.655 82.6946 241.271 82.5032 240.907 82.2814C240.155 81.9074 239.28 81.8225 238.446 81.6528C237.025 81.3695 235.676 80.8361 234.471 80.0813C233.672 79.6361 233.036 78.9793 232.644 78.1955C231.899 76.4479 233.153 74.1567 231.834 72.7329C231.061 71.9031 229.53 71.8905 228.665 72.6009C228.235 72.956 228.177 73.7041 227.73 73.9712C227.106 74.1176 226.46 74.1686 225.818 74.1221Z" fill="#464353"/>
<path opacity="0.1" d="M209.239 164.245C208.757 163.892 208.341 163.467 208.009 162.988C207.675 162.507 207.542 161.929 207.636 161.363C207.504 162.079 207.554 162.813 207.783 163.507C208.012 164.202 208.413 164.837 208.954 165.361C209.805 166.169 211.401 166.961 212.645 166.684C212.469 165.76 210.028 164.868 209.239 164.245Z" fill="black"/>
<path d="M276.283 113.69C276.283 113.69 269.057 109.805 259.52 114.633C249.983 119.46 248.393 147.87 248.393 147.87C248.393 147.87 252.294 176.814 237.253 170.374C237.253 170.374 209.801 162.47 207.053 164.211C207.053 164.211 204.45 164.211 209.652 165.283C214.855 166.354 234.952 172.26 234.952 172.26C234.952 172.26 241.449 174.366 244.201 172.26C246.953 170.154 254.752 172.53 255.765 158.054C256.436 148.931 257.642 139.849 259.378 130.848L262.059 123.477L276.283 113.69Z" fill="#565661"/>
<path d="M277.15 158.453C277.15 158.453 273.971 129.103 279.184 118.514C283.718 109.286 266.183 113.602 261.608 114.859C260.9 115.055 260.282 115.465 259.852 116.022C257.141 119.558 247.414 133.73 250.281 152.692C250.281 152.692 251.437 169.579 244.211 172.257L266.475 165.607C268.281 165.066 270.114 164.616 271.965 164.227C274.324 163.73 278.167 162.319 277.15 158.453Z" fill="white"/>
<path opacity="0.1" d="M335.515 215.524C353.753 215.524 368.539 213.322 368.539 210.605C368.539 207.889 353.753 205.687 335.515 205.687C317.276 205.687 302.491 207.889 302.491 210.605C302.491 213.322 317.276 215.524 335.515 215.524Z" fill="#124612" fill-opacity="0.95"/>
<path d="M336.576 116.374H334.451V160.744H336.576V116.374Z" fill="#535461"/>
<path d="M349.932 160.609L349.8 162.608L349.61 165.437L349.532 166.612L349.346 169.441L349.265 170.617L349.075 173.445L346.933 205.526C346.835 206.903 346.176 208.194 345.09 209.137C344.003 210.08 342.571 210.605 341.083 210.605H329.943C328.452 210.605 327.018 210.077 325.933 209.13C324.847 208.183 324.192 206.887 324.1 205.507L321.951 173.423L321.765 170.595L321.687 169.419L321.494 166.59L321.416 165.415L321.23 162.586L321.094 160.587C321.071 160.204 321.131 159.82 321.273 159.46C321.414 159.099 321.633 158.769 321.917 158.489C322.2 158.21 322.542 157.987 322.922 157.833C323.301 157.68 323.71 157.6 324.124 157.598H346.906C347.321 157.6 347.732 157.681 348.113 157.836C348.494 157.991 348.836 158.216 349.12 158.498C349.403 158.78 349.621 159.113 349.761 159.476C349.901 159.839 349.959 160.225 349.932 160.609Z" fill="#565661"/>
<path d="M349.8 162.608L349.61 165.427H321.419L321.23 162.608H349.8Z" fill="#9D9CB5"/>
<path d="M349.532 166.606L349.346 169.428H321.687L321.497 166.606H349.532Z" fill="#9D9CB5"/>
<path d="M349.265 170.604L349.075 173.423H321.955L321.765 170.604H349.265Z" fill="#9D9CB5"/>
<path d="M317.983 133.004C330.36 141.308 335.515 154.295 335.515 154.295C335.515 154.295 320.603 153.82 308.222 145.516C295.842 137.212 290.693 124.229 290.693 124.229C290.693 124.229 305.609 124.703 317.983 133.004Z" fill="#124612" fill-opacity="0.95"/>
<path d="M290.693 124.229C290.693 124.229 306.172 132.196 311.14 138.793C316.109 145.391 335.515 154.295 335.515 154.295" stroke="#535461" stroke-width="2" stroke-miterlimit="10"/>
<path d="M325.971 116.276C332.709 120.793 335.515 127.865 335.515 127.865C335.515 127.865 327.381 127.604 320.66 123.087C313.939 118.571 311.137 111.499 311.137 111.499C311.137 111.499 319.237 111.757 325.971 116.276Z" fill="#124612" fill-opacity="0.95"/>
<path d="M311.137 111.499C311.137 111.499 319.562 115.836 322.263 119.426C324.964 123.015 335.532 127.865 335.532 127.865" stroke="#535461" stroke-width="2" stroke-miterlimit="10"/>
<path d="M345.303 127.503C337.565 135.389 335.928 145.695 335.928 145.695C335.928 145.695 346.838 143.212 354.569 135.323C362.299 127.434 363.943 117.131 363.943 117.131C363.943 117.131 353.04 119.617 345.303 127.503Z" fill="#124612" fill-opacity="0.95"/>
<path d="M363.95 117.135C363.95 117.135 353.87 125.219 351.308 130.788C348.746 136.358 335.928 145.696 335.928 145.696" stroke="#535461" stroke-width="2" stroke-miterlimit="10"/>
<path d="M188.768 108.52V109.236H165.854V108.655C166.483 108.436 167.077 108.143 167.623 107.781C168.597 107.135 169.389 106.283 169.936 105.296C170.483 104.309 170.769 103.215 170.769 102.105C170.769 101.525 170.69 100.947 170.535 100.386C170.258 99.3747 169.74 98.4342 169.02 97.6331C168.3 96.832 167.395 96.1905 166.373 95.7559H188.612C187.59 96.1905 186.686 96.832 185.965 97.6331C185.245 98.4342 184.728 99.3747 184.451 100.386C184.296 100.947 184.219 101.525 184.22 102.105C184.219 103.214 184.504 104.308 185.05 105.295C185.597 106.283 186.389 107.135 187.362 107.781C187.802 108.072 188.273 108.32 188.768 108.52Z" fill="#DFE6F5"/>
<path opacity="0.1" d="M188.612 95.7559C187.59 96.1905 186.686 96.832 185.966 97.6331C185.245 98.4342 184.728 99.3747 184.451 100.386H170.535C170.258 99.3747 169.74 98.4342 169.02 97.6331C168.3 96.832 167.395 96.1905 166.373 95.7559H188.612Z" fill="black"/>
<path d="M139.619 92.0942V96.1299C139.619 98.3552 141.375 100.162 143.544 100.162H210.957C213.126 100.162 214.885 98.3552 214.885 96.1299V92.0942H139.619Z" fill="#DFE6F5"/>
<path opacity="0.1" d="M188.768 108.519V109.236H165.854V108.655C166.483 108.436 167.077 108.142 167.623 107.781H187.362C187.802 108.072 188.273 108.319 188.768 108.519Z" fill="black"/>
<path d="M195.191 108.004H159.432C158.797 108.004 158.283 108.48 158.283 109.068C158.283 109.655 158.797 110.132 159.432 110.132H195.191C195.825 110.132 196.34 109.655 196.34 109.068C196.34 108.48 195.825 108.004 195.191 108.004Z" fill="#DFE6F5"/>
<path d="M214.885 47.8935C214.885 47.4153 214.783 46.9418 214.586 46.5C214.389 46.0582 214.099 45.6568 213.734 45.3188C213.37 44.9808 212.937 44.7128 212.46 44.5301C211.983 44.3473 211.473 44.2535 210.957 44.2539H143.544C143.028 44.2535 142.518 44.3474 142.041 44.5301C141.565 44.7129 141.132 44.981 140.768 45.319C140.403 45.6571 140.114 46.0585 139.917 46.5002C139.72 46.942 139.619 47.4155 139.619 47.8935V92.8798H214.885V47.8935Z" fill="#474157"/>
<path d="M212.831 49.5186V88.1779C212.832 88.4135 212.782 88.6468 212.685 88.8645C212.588 89.0822 212.446 89.2801 212.267 89.4468C212.087 89.6134 211.874 89.7457 211.639 89.8359C211.405 89.9261 211.153 89.9726 210.899 89.9726H143.605C143.351 89.9726 143.099 89.9261 142.865 89.8359C142.63 89.7457 142.417 89.6134 142.237 89.4468C142.058 89.2801 141.916 89.0822 141.819 88.8645C141.722 88.6468 141.672 88.4135 141.673 88.1779V49.5186C141.671 49.2041 141.76 48.8948 141.93 48.6228C142.1 48.3503 142.344 48.124 142.638 47.9668C142.932 47.8095 143.265 47.7268 143.605 47.7271H210.899C211.412 47.7271 211.903 47.9158 212.265 48.2518C212.628 48.5878 212.831 49.0434 212.831 49.5186Z" fill="#4C4C78"/>
<path d="M177.252 46.8283C177.752 46.8283 178.157 46.4526 178.157 45.9891C178.157 45.5256 177.752 45.1499 177.252 45.1499C176.752 45.1499 176.347 45.5256 176.347 45.9891C176.347 46.4526 176.752 46.8283 177.252 46.8283Z" fill="white"/>
<path d="M177.252 98.3676C178.486 98.3676 179.486 97.4403 179.486 96.2964C179.486 95.1524 178.486 94.2251 177.252 94.2251C176.019 94.2251 175.019 95.1524 175.019 96.2964C175.019 97.4403 176.019 98.3676 177.252 98.3676Z" fill="white"/>
<path d="M212.831 49.5186H141.68C141.68 49.0434 141.883 48.5878 142.245 48.2518C142.608 47.9158 143.099 47.7271 143.611 47.7271H210.899C211.412 47.7271 211.903 47.9158 212.265 48.2518C212.628 48.5878 212.831 49.0434 212.831 49.5186Z" fill="#C8CAD7"/>
<path d="M143.605 49.0723C143.872 49.0723 144.089 48.871 144.089 48.6228C144.089 48.3746 143.872 48.1733 143.605 48.1733C143.337 48.1733 143.12 48.3746 143.12 48.6228C143.12 48.871 143.337 49.0723 143.605 49.0723Z" fill="#EDEDF4"/>
<path d="M145.055 49.0723C145.323 49.0723 145.54 48.871 145.54 48.6228C145.54 48.3746 145.323 48.1733 145.055 48.1733C144.788 48.1733 144.571 48.3746 144.571 48.6228C144.571 48.871 144.788 49.0723 145.055 49.0723Z" fill="#EDEDF4"/>
<path d="M146.506 49.0723C146.773 49.0723 146.99 48.871 146.99 48.6228C146.99 48.3746 146.773 48.1733 146.506 48.1733C146.238 48.1733 146.021 48.3746 146.021 48.6228C146.021 48.871 146.238 49.0723 146.506 49.0723Z" fill="#EDEDF4"/>
<defs>
<linearGradient id="paint0_linear_181_145" x1="130.973" y1="147.012" x2="131.76" y2="147.012" gradientUnits="userSpaceOnUse">
<stop stop-color="#808080" stop-opacity="0.25"/>
<stop offset="0.54" stop-color="#808080" stop-opacity="0.12"/>
<stop offset="1" stop-color="#808080" stop-opacity="0.1"/>
</linearGradient>
</defs>
</svg>
