<svg width="356" height="238" viewBox="0 0 356 238" fill="none" xmlns="http://www.w3.org/2000/svg">
<path d="M207.719 194.21V205.609H211.111L210.454 193.373L207.719 194.21Z" fill="#AAABB0"/>
<path d="M156.766 191.91V203.309H160.161L159.505 191.073L156.766 191.91Z" fill="#AAABB0"/>
<path d="M216.036 175.178C216.036 174.022 215.057 173.085 213.848 173.085C212.639 173.085 211.659 174.022 211.659 175.178V191.283C211.659 192.439 212.639 193.376 213.848 193.376C215.057 193.376 216.036 192.439 216.036 191.283V175.178Z" fill="#AAABB0"/>
<path d="M159.886 170.679C159.886 169.523 158.906 168.586 157.697 168.586C156.488 168.586 155.508 169.523 155.508 170.679V191.28C155.508 192.436 156.488 193.373 157.697 193.373C158.906 193.373 159.886 192.436 159.886 191.28V170.679Z" fill="#AAABB0"/>
<path d="M221.622 51.6647C221.622 51.6647 225.999 49.8857 226.656 51.6647C227.313 53.4436 227.641 68.8173 227.641 68.8173H223.481L221.622 51.6647Z" fill="#AAABB0"/>
<path d="M173.68 51.6647C173.68 51.6647 169.3 49.8857 168.643 51.6647C167.986 53.4436 167.658 68.8173 167.658 68.8173H171.818L173.68 51.6647Z" fill="#AAABB0"/>
<path d="M174.334 36.3948L173.677 49.1549H176.632V36.0811L174.334 36.3948Z" fill="#AAABB0"/>
<path d="M171.818 68.8174L172.695 50.4098C172.695 50.4098 172.367 46.331 182.763 47.586C193.159 48.841 223.592 51.351 223.592 51.351V68.8174H171.818Z" fill="#33323D"/>
<path d="M213.413 165.766L211.771 193.897C211.771 193.897 187.688 206.657 158.464 194.524L161.091 164.928L213.413 165.766Z" fill="#33323D"/>
<path d="M190.536 55.0093L191.081 73.2067H225.014L223.044 49.1548L190.536 55.0093Z" fill="#444053"/>
<path d="M193.983 153.737H162.02V192.431H193.983V153.737Z" fill="#4C4981"/>
<path d="M182.218 169.531C182.218 169.531 186.815 166.079 187.58 167.124C188.345 168.169 184.848 172.668 183.423 172.144C181.998 171.62 182.218 169.531 182.218 169.531Z" fill="#FFB9B9"/>
<path d="M309.809 67.7695H99.9915V168.169H309.809V67.7695Z" fill="#504F60"/>
<path d="M171.927 35.6639C171.927 35.6639 170.285 21.0212 171.927 19.2454C173.568 17.4696 201.151 0.627588 226.656 20.3937C226.656 20.3937 229.063 20.5004 228.626 25.7274C228.368 29.0357 228.386 32.3583 228.678 35.6639C228.678 35.6639 173.788 39.4288 171.927 35.6639Z" fill="#33323D"/>
<path opacity="0.1" d="M171.927 35.6639C171.927 35.6639 170.285 21.0212 171.927 19.2454C173.568 17.4696 201.151 0.627588 226.656 20.3937C226.656 20.3937 229.063 20.5004 228.626 25.7274C228.368 29.0357 228.386 32.3583 228.678 35.6639C228.678 35.6639 173.788 39.4288 171.927 35.6639Z" fill="black"/>
<path d="M171.927 37.5462C171.927 37.5462 170.285 22.9035 171.927 21.1277C173.568 19.3519 201.151 2.50991 226.656 22.2761C226.656 22.2761 229.063 22.3827 228.626 27.6098C228.368 30.918 228.386 34.2406 228.678 37.5462C228.678 37.5462 173.788 41.3112 171.927 37.5462Z" fill="#33323D"/>
<path d="M229.611 30.854C229.611 30.854 231.362 37.129 230.816 38.1738C230.271 39.2185 230.37 42.1489 230.37 42.1489C230.37 42.1489 230.488 44.0314 229.611 44.2385C228.735 44.4456 227.969 44.5523 228.679 45.1798C229.388 45.8072 228.679 46.7485 228.679 46.7485C228.679 46.7485 228.295 48.2137 228.679 49.1549C229.063 50.0962 226.433 50.4884 226.656 51.6649C226.879 52.8415 227.615 56.1609 226.656 56.2676C225.697 56.3743 226.984 60.4499 226.121 60.4499C225.257 60.4499 224.643 67.7696 224.643 67.7696C224.643 67.7696 218.568 62.8563 214.52 64.2149C214.52 64.2149 214.848 60.1361 216.161 58.6709C217.475 57.2057 217.078 53.4439 217.078 53.4439L223.592 34.7225L229.611 30.854Z" fill="#4C4981"/>
<path d="M197.103 117.38C195.681 118.882 194.147 110.857 194.147 110.857C194.147 110.857 190.099 116.19 187.472 112.636C185.653 110.173 187.088 103.195 188.129 99.1445C188.595 97.3436 188.989 96.12 188.989 96.12L194.899 95.1787C194.899 95.1787 194.919 96.4086 195.051 97.902C195.228 99.9194 195.612 102.423 196.43 103.022C197.871 104.061 198.528 115.864 197.103 117.38Z" fill="#AE6E79"/>
<path opacity="0.1" d="M194.039 23.4275C194.039 23.4275 183.748 23.3239 181.233 28.551C178.718 33.778 178.606 35.5601 177.621 36.3947C176.636 37.2293 188.345 41.6249 188.345 41.6249L188.894 59.6121C188.894 59.6121 191.192 57.3876 194.913 58.3947C198.633 59.4018 203.342 58.3947 203.342 58.3947C203.342 58.3947 203.122 58.0151 206.189 58.3947C209.256 58.7743 218.995 53.8611 218.995 53.8611C218.995 53.8611 219.156 45.9923 218.939 44.3168C218.723 42.6414 225.888 30.3299 225.888 30.3299C225.888 30.3299 231.47 25.2064 225.671 23.4275C225.671 23.4275 223.619 20.472 218.338 20.5002C213.058 20.5284 194.039 23.4275 194.039 23.4275Z" fill="black"/>
<path d="M194.039 23.114C194.039 23.114 183.748 23.0105 181.233 28.2375C178.718 33.4646 178.606 35.2466 177.621 36.0812C176.636 36.9158 188.345 41.3114 188.345 41.3114L188.894 59.2986C188.894 59.2986 191.192 57.0741 194.913 58.0812C198.633 59.0884 203.342 58.0812 203.342 58.0812C203.342 58.0812 203.122 57.7016 206.189 58.0812C209.256 58.4609 218.995 53.5476 218.995 53.5476C218.995 53.5476 222.824 47.5864 222.607 45.9141C222.391 44.2418 230.268 31.5852 230.268 31.5852C230.268 31.5852 231.473 24.8929 225.671 23.114C225.671 23.114 223.619 20.1585 218.338 20.1867C213.058 20.215 194.039 23.114 194.039 23.114Z" fill="#4C4981"/>
<path opacity="0.1" d="M195.077 97.8924C192.821 97.221 189.281 98.7019 188.155 99.1474C188.621 97.3465 189.015 96.1229 189.015 96.1229L194.926 95.1816C194.926 95.1816 194.936 96.4115 195.077 97.8924Z" fill="black"/>
<path d="M180.793 36.0811H177.621C177.621 36.0811 176.964 42.4627 177.621 44.3452C178.278 46.2277 178.606 45.9547 178.386 47.3477C178.166 48.7408 179.919 50.8743 179.919 50.8743C179.919 50.8743 180.136 56.1327 181.233 58.0905C182.33 60.0483 180.028 68.8269 180.028 68.8269C180.656 70.3424 181.584 71.7274 182.763 72.9057C184.625 74.6815 185.61 81.2702 185.062 83.7802C184.513 86.2902 186.595 87.2314 186.595 87.2314C186.595 87.2314 187.472 98.9468 187.8 98.9468C188.129 98.9468 194.476 95.8093 196.446 98.5263L194.913 87.7554L195.024 66.9445C195.024 66.9445 192.942 64.3278 194.039 62.028C195.136 59.7283 193.162 54.2879 193.162 54.2879L190.316 42.1584L180.793 36.0811Z" fill="#4C4981"/>
<path d="M161.091 201.426C161.091 201.426 156.494 200.485 156.385 201.426C156.277 202.367 150.911 211.99 157.59 214.814C164.269 217.637 182.106 223.702 211.114 215.859C211.114 215.859 212.973 216.486 212.536 212.618C212.099 208.749 212.099 204.46 212.099 204.46C212.099 204.46 207.719 203.309 204.435 203.729C201.152 204.149 172.584 209.69 161.091 201.426Z" fill="#33323D"/>
<path opacity="0.1" d="M161.091 201.426C161.091 201.426 156.494 200.485 156.385 201.426C156.277 202.367 150.911 211.99 157.59 214.814C164.269 217.637 182.106 223.702 211.114 215.859C211.114 215.859 212.973 216.486 212.536 212.618C212.099 208.749 212.099 204.46 212.099 204.46C212.099 204.46 207.719 203.309 204.435 203.729C201.152 204.149 172.584 209.69 161.091 201.426Z" fill="black"/>
<path d="M161.091 200.171C161.091 200.171 156.494 199.23 156.385 200.171C156.277 201.113 150.911 210.735 157.59 213.559C164.269 216.383 182.106 222.447 211.114 214.604C211.114 214.604 212.973 215.231 212.536 211.363C212.099 207.494 212.099 203.205 212.099 203.205C212.099 203.205 207.719 202.054 204.435 202.474C201.152 202.895 172.584 208.435 161.091 200.171Z" fill="#33323D"/>
<path d="M187.899 39.8399C187.616 41.3741 186.976 42.8487 186.877 44.4018C186.779 45.9549 187.406 47.7213 188.907 48.3299C189.325 48.4495 189.731 48.6071 190.118 48.8005C190.696 49.1739 190.933 49.8767 191.054 50.5356C191.216 51.3862 191.254 52.2539 191.169 53.1146C191.087 53.9805 190.893 54.9124 191.34 55.6685C192.125 57.0082 194.171 56.8105 195.727 56.434L195.192 60.3967C195.149 60.7104 195.123 61.065 195.362 61.2783C195.476 61.3545 195.604 61.4083 195.739 61.4363C195.875 61.4643 196.014 61.4661 196.151 61.4415C197.503 61.3599 198.896 61.1811 200.055 60.5002C201.214 59.8194 202.078 58.5518 201.858 57.2749C201.601 55.794 199.999 54.6174 200.216 53.1303C200.383 51.9788 201.562 51.2478 202.337 50.363C203.739 48.7441 203.815 46.2843 202.715 44.452C201.615 42.6197 199.49 41.4839 197.303 41.2769C196.091 41.1608 194.831 41.302 193.691 40.9004C193.295 40.7614 192.937 40.5368 192.647 40.2439C192.356 39.9511 192.14 39.5981 192.016 39.2124" fill="#444053"/>
<path d="M149.709 179.361L150.855 176.976C150.855 176.976 157.042 171.47 158.464 171.084C159.886 170.698 165.688 169.016 166.565 169.016C167.441 169.016 183.423 168.179 183.423 168.179L185.282 172.364L165.225 176.571L158.464 181.278L149.709 179.361Z" fill="#767D9F"/>
<path d="M197.897 115.146L196.85 122.848L196.446 125.813L191.741 126.441C191.741 126.441 191.232 125.399 190.512 123.799C188.329 118.942 184.218 108.927 186.602 107.198C189.77 104.896 190.542 112.532 190.542 112.532L194.154 110.857L197.897 115.146Z" fill="#FFB9B9"/>
<path d="M197.113 129.475H173.349V163.777H197.113V129.475Z" fill="white"/>
<path opacity="0.1" d="M197.113 129.475H173.349V163.777H197.113V129.475Z" fill="black"/>
<path d="M207.793 131.332L184.285 128.011L179.034 161.944L202.543 165.265L207.793 131.332Z" fill="white"/>
<path d="M198.598 132.956L186.498 131.247L183.796 148.712L195.896 150.421L198.598 132.956Z" fill="#79B178"/>
<path d="M197.158 155.753L182.498 153.682L181.911 157.475L196.571 159.546L197.158 155.753Z" fill="#79B178"/>
<path opacity="0.1" d="M203.342 42.9303C210.928 42.9303 217.077 37.0545 217.077 29.8062C217.077 22.558 210.928 16.6821 203.342 16.6821C195.756 16.6821 189.606 22.558 189.606 29.8062C189.606 37.0545 195.756 42.9303 203.342 42.9303Z" fill="black"/>
<path d="M203.342 42.6163C210.928 42.6163 217.077 36.7405 217.077 29.4923C217.077 22.244 210.928 16.3682 203.342 16.3682C195.756 16.3682 189.606 22.244 189.606 29.4923C189.606 36.7405 195.756 42.6163 203.342 42.6163Z" fill="#AE6E79"/>
<path d="M192.017 39.2186C191.923 38.8806 191.957 38.5219 192.112 38.2052C192.634 37.1667 194.121 37.0757 195.326 37.129C198.16 37.2545 201.27 37.2702 203.486 35.5603C204.406 34.8575 205.434 33.0911 206.77 33.4268C207.959 33.7249 208.455 35.2654 209.693 35.6074C210.589 35.8552 211.518 35.4599 212.431 35.2936C213.745 35.0457 215.091 35.2528 216.424 35.2622C217.757 35.2716 219.205 35.0301 220.115 34.0982C221.343 32.8432 221.143 30.8823 221.034 29.163C220.9 26.942 221.057 24.7137 221.504 22.5303C221.951 20.3592 222.637 17.9308 221.382 16.0702C220.187 14.2976 217.711 13.8113 216.02 12.4527C214.437 11.1977 213.6 9.18661 211.929 8.0226C209.824 6.5574 206.964 6.76761 204.376 7.02175L198.761 7.59277C197.313 7.74023 195.806 7.90652 194.614 8.73168C192.463 10.2188 192.168 13.3093 190.132 14.9376C189.225 15.6592 188.066 16.0169 187.032 16.5566C185.998 17.0962 184.999 17.9496 184.881 19.0665C184.783 20.0078 185.315 20.8769 185.574 21.7836C186.188 23.9485 185.229 26.1761 184.615 28.3566C184.001 30.5372 183.883 33.1852 185.666 34.6316C186.027 34.9265 186.447 35.1524 186.799 35.4599C188.004 36.5109 188.168 38.2836 187.889 39.8147" fill="#444053"/>
<path d="M204.461 45.8856C204.643 45.8856 204.79 45.5345 204.79 45.1013C204.79 44.6681 204.643 44.3169 204.461 44.3169C204.28 44.3169 204.133 44.6681 204.133 45.1013C204.133 45.5345 204.28 45.8856 204.461 45.8856Z" fill="#444053"/>
<path d="M204.461 49.1552C204.643 49.1552 204.79 48.804 204.79 48.3708C204.79 47.9376 204.643 47.5864 204.461 47.5864C204.28 47.5864 204.133 47.9376 204.133 48.3708C204.133 48.804 204.28 49.1552 204.461 49.1552Z" fill="#444053"/>
<path d="M197.178 117.358C197.53 116.972 197.763 115.98 197.897 114.672L193.983 110.01C193.983 110.01 195.642 119.049 197.178 117.358Z" fill="#AE6E79"/>
<path opacity="0.1" d="M201.592 194.42C201.592 194.42 195.169 203.908 175.102 202.891C156.198 201.95 146.971 193.062 147.411 189.924C147.851 186.787 146.206 179.15 150.255 176.954C152.603 175.683 155.693 176.436 157.873 177.296C158.626 177.588 159.451 177.671 160.251 177.533C161.051 177.396 161.794 177.045 162.394 176.521C164.388 174.805 168.105 172.872 173.973 174.394C174.728 174.586 175.524 174.572 176.271 174.353C178.714 173.641 184.53 172.405 188.749 175.15C189.416 175.589 190.2 175.838 191.009 175.867C191.819 175.897 192.62 175.706 193.32 175.316L193.379 175.282C195.349 174.13 204.544 185.008 204.544 185.008C204.544 185.008 204.984 193.375 201.592 194.42Z" fill="black"/>
<path d="M201.592 194.734C201.592 194.734 195.169 204.222 175.102 203.205C156.198 202.264 146.971 193.376 147.411 190.238C147.851 187.101 146.206 179.464 150.255 177.268C152.603 175.997 155.693 176.75 157.873 177.61C158.626 177.902 159.451 177.984 160.251 177.847C161.051 177.71 161.794 177.359 162.394 176.835C164.388 175.119 168.105 173.186 173.973 174.708C174.728 174.9 175.524 174.886 176.271 174.667C178.714 173.955 184.53 172.719 188.749 175.464C189.416 175.903 190.2 176.152 191.009 176.181C191.819 176.211 192.62 176.02 193.32 175.63L193.379 175.596C195.349 174.444 204.544 185.322 204.544 185.322C204.544 185.322 204.984 193.689 201.592 194.734Z" fill="#767D9F"/>
<path opacity="0.1" d="M175.102 198.449C182.327 198.449 188.184 192.852 188.184 185.949C188.184 179.046 182.327 173.449 175.102 173.449C167.877 173.449 162.02 179.046 162.02 185.949C162.02 192.852 167.877 198.449 175.102 198.449Z" fill="black"/>
<path d="M175.102 198.763C182.327 198.763 188.184 193.166 188.184 186.263C188.184 179.359 182.327 173.763 175.102 173.763C167.877 173.763 162.02 179.359 162.02 186.263C162.02 193.166 167.877 198.763 175.102 198.763Z" fill="#FFB9B9"/>
<path d="M171.352 175.457C169.98 175.812 168.627 176.49 167.957 177.603C167.553 178.275 167.412 179.081 166.827 179.64C166 180.433 164.604 180.449 163.484 180.895C162.365 181.34 161.626 182.909 162.723 183.405C161.58 183.461 160.733 184.468 160.592 185.469C160.45 186.47 160.848 187.468 161.232 188.421C162.486 191.509 163.836 194.731 166.601 196.927C171.106 200.51 177.897 200.344 183.948 199.964C184.443 199.98 184.933 199.872 185.37 199.65C186.027 199.236 186.109 198.442 186.217 197.746C186.674 194.772 188.362 192.07 189.465 189.231C190.568 186.391 191.021 183.056 189.163 180.543C186.428 176.816 175.956 174.265 171.352 175.457Z" fill="#B96B6B"/>
<path opacity="0.1" d="M196.85 122.848L196.446 125.813L191.74 126.441C191.74 126.441 191.231 125.399 190.512 123.799L196.774 122.676L196.85 122.848Z" fill="black"/>
<path d="M201.809 188.356L204.547 185.322L203.999 168.589C204.269 167.382 204.452 166.159 204.547 164.928C204.656 163.149 203.178 159.177 203.178 159.177C203.407 158.382 203.718 157.61 204.107 156.874C204.764 155.619 203.181 152.795 203.181 152.795C203.181 152.795 200.824 145.476 201.809 141.814C202.794 138.153 201.569 136.063 201.569 136.063C201.569 136.063 200.607 131.984 200.715 130.312C200.824 128.64 198.525 127.068 198.525 127.068L196.775 122.989L189.771 124.244V138.363C189.771 138.363 190.207 151.854 189.771 154.471C189.334 157.087 190.644 159.594 190.644 159.594C190.644 159.594 189.879 163.463 190.536 164.928C191.192 166.393 192.506 169.948 192.506 169.948C192.262 171.218 192.338 172.526 192.726 173.763C193.383 175.595 192.726 176.64 192.726 176.64L201.809 188.356Z" fill="#767D9F"/>
<g opacity="0.1">
<path opacity="0.1" d="M221.514 21.498C221.143 23.3345 220.977 25.2033 221.018 27.0733C221.046 25.5184 221.216 23.9689 221.527 22.4423C221.816 21.0493 222.184 19.5496 222.105 18.1597C221.984 19.2835 221.786 20.3986 221.514 21.498Z" fill="black"/>
<path opacity="0.1" d="M186.809 34.4494C186.457 34.1356 186.037 33.916 185.676 33.618C184.717 32.8367 184.313 31.7041 184.234 30.4805C184.139 32.0492 184.474 33.5678 185.676 34.5592C186.037 34.8573 186.457 35.0832 186.809 35.3906C187.543 36.0851 187.969 37.0235 187.997 38.0104C188.092 36.6927 187.813 35.3216 186.809 34.4494Z" fill="black"/>
<path opacity="0.1" d="M185.761 22.734C185.818 22.0713 185.759 21.4041 185.584 20.7605C185.393 20.0891 185.052 19.4333 184.927 18.7588C184.927 18.831 184.901 18.9063 184.891 18.9847C184.796 19.9259 185.328 20.795 185.584 21.7017C185.678 22.0394 185.737 22.3852 185.761 22.734Z" fill="black"/>
<path opacity="0.1" d="M220.125 33.0657C219.215 34.0069 217.767 34.2391 216.434 34.2297C215.101 34.2203 213.751 34.0132 212.441 34.2642C211.528 34.4399 210.599 34.8321 209.702 34.5779C208.464 34.2359 207.968 32.6954 206.783 32.3974C205.433 32.0585 204.406 33.8249 203.499 34.5277C201.283 36.222 198.173 36.2063 195.339 36.0965C194.134 36.0431 192.647 36.1341 192.128 37.1758C191.97 37.4916 191.936 37.8514 192.033 38.1892L188.02 38.7916C188.005 39.1072 187.969 39.4216 187.912 39.7328L192.033 39.1053C191.936 38.7676 191.97 38.4078 192.128 38.0919C192.647 37.0503 194.134 36.9593 195.339 37.0126C198.173 37.1381 201.283 37.1538 203.499 35.4439C204.419 34.7411 205.447 32.9747 206.783 33.3135C207.968 33.6085 208.464 35.1521 209.702 35.4941C210.599 35.7388 211.528 35.3466 212.441 35.1803C213.754 34.9293 215.101 35.1364 216.434 35.1458C217.767 35.1552 219.215 34.9136 220.125 33.9818C221.034 33.05 221.166 31.6601 221.11 30.3047C221.07 31.3557 220.844 32.3284 220.125 33.0657Z" fill="black"/>
</g>
<g opacity="0.1">
<path opacity="0.1" d="M189.728 48.1348C189.341 47.9402 188.935 47.7826 188.516 47.6642C187.803 47.3548 187.238 46.8019 186.93 46.1143C187.176 47.1967 187.8 48.1819 188.844 48.6054C189.264 48.7238 189.669 48.8815 190.056 49.076C190.303 49.2429 190.503 49.4662 190.637 49.7255C190.506 49.1106 190.266 48.4831 189.728 48.1348Z" fill="black"/>
<path opacity="0.1" d="M195.336 55.7684C193.823 56.1355 191.846 56.3269 191.015 55.1001C191.041 55.3957 191.13 55.683 191.278 55.9441C191.987 57.152 193.721 57.1112 195.195 56.8132L195.336 55.7684Z" fill="black"/>
<path opacity="0.1" d="M201.47 56.6284C201.68 57.9022 200.813 59.1729 199.664 59.8412C198.515 60.5095 197.113 60.6946 195.76 60.7825C195.545 60.809 195.326 60.7854 195.123 60.7134C195.061 60.8461 195.041 60.993 195.066 61.1363C195.09 61.2795 195.157 61.4129 195.26 61.5201C195.362 61.6273 195.495 61.7036 195.642 61.7398C195.789 61.7759 195.944 61.7703 196.088 61.7237C197.441 61.6421 198.833 61.4633 199.992 60.7825C201.152 60.1016 202.018 58.8341 201.795 57.5571C201.732 57.2347 201.623 56.9222 201.47 56.6284Z" fill="black"/>
<path opacity="0.1" d="M202.928 45.2705C203.129 46.0333 203.144 46.8298 202.974 47.5992C202.803 48.3686 202.45 49.0906 201.943 49.71C201.168 50.6074 199.99 51.3258 199.822 52.4773C199.766 53.0067 199.881 53.5397 200.15 54.0053C200.121 53.8107 200.121 53.6131 200.15 53.4185C200.318 52.2671 201.497 51.5361 202.272 50.6513C203.546 49.1798 203.723 47.0118 202.928 45.2705Z" fill="black"/>
</g>
<g opacity="0.1">
<path opacity="0.1" d="M163.488 181.378C164.605 180.936 166 180.92 166.831 180.123C167.415 179.564 167.557 178.758 167.961 178.09C168.617 176.973 169.98 176.298 171.353 175.944C175.95 174.752 186.431 177.299 189.163 180.992C189.964 182.109 190.4 183.428 190.418 184.782C190.523 183.219 190.083 181.667 189.167 180.368C186.434 176.675 175.963 174.127 171.356 175.319C169.983 175.674 168.63 176.349 167.964 177.466C167.56 178.134 167.419 178.94 166.834 179.499C166.003 180.292 164.608 180.308 163.491 180.754C162.641 181.089 162.01 182.081 162.24 182.746C162.332 182.445 162.491 182.167 162.706 181.931C162.922 181.694 163.189 181.506 163.488 181.378Z" fill="black"/>
<path opacity="0.1" d="M160.598 185.937C160.736 184.933 161.583 183.929 162.729 183.872C162.609 183.825 162.502 183.751 162.415 183.659C162.328 183.566 162.264 183.456 162.227 183.336C161.791 183.491 161.408 183.756 161.118 184.104C160.829 184.452 160.645 184.869 160.585 185.309C160.554 185.565 160.554 185.823 160.585 186.078C160.598 186.031 160.598 185.984 160.598 185.937Z" fill="black"/>
</g>
<path d="M230.156 72.2373H200.275V109.47H230.156V72.2373Z" fill="white"/>
<path opacity="0.1" d="M230.156 72.2373H200.275V109.47H230.156V72.2373Z" fill="black"/>
<path d="M241.573 74.4217L212.124 79.2617L218.73 115.955L248.179 111.115L241.573 74.4217Z" fill="white"/>
<path d="M226.18 103.139L219.262 104.276L220.814 112.897L227.732 111.759L226.18 103.139Z" fill="#79B178"/>
<path d="M235.755 101.564L228.836 102.701L230.388 111.321L237.307 110.184L235.755 101.564Z" fill="#79B178"/>
<path d="M242.521 88.9335L218.256 92.9146L219.813 101.574L244.077 97.5933L242.521 88.9335Z" fill="#79B178"/>
<path d="M240.498 78.598L216.234 82.5791L216.581 84.5111L240.845 80.53L240.498 78.598Z" fill="#79B178"/>
<path d="M241.294 82.1517L217.03 86.1328L217.377 88.0648L241.641 84.0837L241.294 82.1517Z" fill="#79B178"/>
<path d="M217.077 62.1221C217.077 62.1221 203.342 75.2995 210.237 78.6472C217.133 81.9949 221.622 67.5091 221.622 67.5091L222.712 64.2148L217.077 62.1221Z" fill="#AE6E79"/>
<path opacity="0.1" d="M215.876 60.958L214.178 64.541C214.178 64.541 222.551 65.6643 224.302 68.0832L223.264 61.7612L222.033 59.063L215.876 60.958Z" fill="black"/>
<path d="M216.204 60.6446L214.506 64.2276C214.506 64.2276 222.88 65.3508 224.63 67.7698L223.592 61.4477L222.361 58.7495L216.204 60.6446Z" fill="#4C4981"/>
<path d="M266.891 126.522L266.71 126.639L266.96 126.744L267.229 126.723L267.262 126.547L266.891 126.522Z" fill="#464A5F"/>
<path opacity="0.1" d="M266.891 126.522L266.71 126.639L266.96 126.744L267.229 126.723L267.262 126.547L266.891 126.522Z" fill="black"/>
<path d="M266.891 126.522L266.707 126.635L266.562 126.465L266.651 126.327L266.733 126.302L266.891 126.522Z" fill="#9C9CA1"/>
<path opacity="0.1" d="M266.891 126.522L266.707 126.635L266.562 126.465L266.651 126.327L266.733 126.302L266.891 126.522Z" fill="black"/>
<path d="M299.212 104.839L285.769 86.2871C285.65 86.1215 285.498 85.98 285.321 85.8707C285.145 85.7613 284.948 85.6863 284.741 85.6498C284.534 85.6134 284.322 85.6163 284.116 85.6584C283.91 85.7004 283.716 85.7808 283.542 85.8949L253.576 105.548C253.225 105.778 252.984 106.132 252.906 106.531C252.828 106.93 252.919 107.343 253.159 107.678L266.566 126.466L299.212 104.839Z" fill="#9C9CA1"/>
<path opacity="0.1" d="M299.212 104.839L285.769 86.2871C285.65 86.1215 285.498 85.98 285.321 85.8707C285.145 85.7613 284.948 85.6863 284.741 85.6498C284.534 85.6134 284.322 85.6163 284.116 85.6584C283.91 85.7004 283.716 85.7808 283.542 85.8949L253.576 105.548C253.225 105.778 252.984 106.132 252.906 106.531C252.828 106.93 252.919 107.343 253.159 107.678L266.566 126.466L299.212 104.839Z" fill="black"/>
<path d="M299.54 104.883L286.097 86.3308C285.978 86.1651 285.825 86.0235 285.649 85.9141C285.472 85.8047 285.274 85.7297 285.067 85.6933C284.86 85.6568 284.648 85.6598 284.442 85.7019C284.236 85.744 284.041 85.8244 283.867 85.9386L253.904 105.604C253.553 105.834 253.313 106.188 253.234 106.587C253.155 106.986 253.245 107.399 253.484 107.735L266.891 126.531L299.54 104.883Z" fill="#9C9CA1"/>
<path d="M310.777 108.551L299.612 105.125L266.96 126.751L278.301 130.297C278.555 130.375 278.825 130.396 279.089 130.358C279.353 130.32 279.604 130.224 279.822 130.077L310.869 109.131C310.927 109.1 310.974 109.053 311.003 108.995C311.033 108.938 311.043 108.874 311.033 108.81C311.023 108.747 310.993 108.689 310.947 108.642C310.902 108.596 310.842 108.564 310.777 108.551Z" fill="#464A5F"/>
<path opacity="0.1" d="M310.777 108.551L299.612 105.125L266.96 126.751L278.301 130.297C278.555 130.375 278.825 130.396 279.089 130.358C279.353 130.32 279.604 130.224 279.822 130.077L310.869 109.131C310.927 109.1 310.974 109.053 311.003 108.995C311.033 108.938 311.043 108.874 311.033 108.81C311.023 108.747 310.993 108.689 310.947 108.642C310.902 108.596 310.842 108.564 310.777 108.551Z" fill="black"/>
<path d="M310.708 108.334L299.543 104.905L266.89 126.531L278.232 130.071C278.486 130.151 278.755 130.173 279.019 130.135C279.284 130.098 279.535 130.001 279.753 129.854L310.8 108.908C310.856 108.876 310.9 108.829 310.928 108.773C310.956 108.716 310.966 108.653 310.956 108.592C310.946 108.53 310.917 108.473 310.873 108.427C310.829 108.381 310.771 108.349 310.708 108.334Z" fill="#464A5F"/>
<g opacity="0.1">
<path opacity="0.1" d="M294.267 104.055L293.443 102.925C293.393 102.86 293.319 102.815 293.236 102.801C293.153 102.786 293.067 102.803 292.996 102.847L291.771 103.628C291.702 103.675 291.655 103.744 291.638 103.823C291.622 103.902 291.638 103.984 291.683 104.052L292.441 105.166C292.489 105.232 292.561 105.279 292.644 105.296C292.726 105.313 292.812 105.299 292.884 105.257L294.175 104.482C294.245 104.436 294.294 104.366 294.311 104.286C294.328 104.206 294.312 104.124 294.267 104.055Z" fill="black"/>
<path opacity="0.1" d="M292.067 105.511L291.24 104.384C291.19 104.319 291.116 104.274 291.033 104.26C290.95 104.245 290.864 104.262 290.793 104.306L289.572 105.094C289.502 105.139 289.454 105.209 289.437 105.288C289.42 105.367 289.435 105.449 289.48 105.517L290.238 106.631C290.285 106.698 290.357 106.745 290.44 106.763C290.523 106.78 290.609 106.767 290.681 106.725L291.975 105.95C292.012 105.927 292.043 105.898 292.068 105.863C292.092 105.829 292.109 105.79 292.118 105.749C292.126 105.708 292.126 105.666 292.117 105.625C292.109 105.584 292.092 105.545 292.067 105.511Z" fill="black"/>
<path opacity="0.1" d="M289.755 107.039L288.928 105.912C288.878 105.847 288.804 105.802 288.721 105.787C288.638 105.773 288.552 105.789 288.481 105.834L287.256 106.621C287.187 106.668 287.139 106.738 287.122 106.818C287.106 106.897 287.122 106.98 287.168 107.048L287.926 108.162C287.974 108.229 288.046 108.275 288.129 108.292C288.211 108.309 288.298 108.295 288.37 108.253L289.66 107.478C289.697 107.455 289.729 107.426 289.753 107.392C289.778 107.357 289.795 107.318 289.804 107.277C289.813 107.236 289.813 107.194 289.805 107.153C289.797 107.112 289.78 107.073 289.755 107.039Z" fill="black"/>
<path opacity="0.1" d="M287.414 108.588L286.586 107.459C286.537 107.394 286.463 107.35 286.381 107.335C286.298 107.321 286.213 107.337 286.143 107.38L284.918 108.171C284.849 108.217 284.802 108.287 284.785 108.366C284.769 108.445 284.785 108.526 284.829 108.594L285.588 109.708C285.635 109.775 285.707 109.821 285.788 109.839C285.87 109.856 285.956 109.843 286.028 109.802L287.322 109.024C287.358 109.002 287.389 108.972 287.413 108.938C287.437 108.904 287.454 108.865 287.463 108.825C287.471 108.784 287.471 108.742 287.463 108.702C287.454 108.661 287.438 108.623 287.414 108.588Z" fill="black"/>
<path opacity="0.1" d="M285.076 110.135L284.248 109.009C284.199 108.943 284.125 108.899 284.041 108.884C283.958 108.869 283.872 108.886 283.802 108.93L282.58 109.718C282.511 109.764 282.463 109.833 282.446 109.912C282.428 109.991 282.444 110.073 282.488 110.142L283.247 111.255C283.294 111.323 283.366 111.37 283.449 111.387C283.531 111.405 283.618 111.391 283.69 111.35L284.984 110.571C285.02 110.549 285.051 110.519 285.075 110.485C285.099 110.451 285.116 110.412 285.125 110.372C285.133 110.331 285.133 110.289 285.125 110.249C285.117 110.208 285.1 110.17 285.076 110.135Z" fill="black"/>
<path opacity="0.1" d="M282.839 111.823L281.812 110.424C281.801 110.408 281.787 110.395 281.77 110.385C281.754 110.374 281.736 110.367 281.716 110.364C281.697 110.36 281.677 110.361 281.658 110.364C281.639 110.368 281.621 110.376 281.605 110.386L280.101 111.356C280.084 111.366 280.07 111.379 280.059 111.395C280.048 111.41 280.04 111.428 280.036 111.446C280.032 111.465 280.032 111.484 280.036 111.502C280.04 111.52 280.047 111.538 280.058 111.554L281.001 112.937C281.022 112.969 281.056 112.991 281.095 113C281.133 113.008 281.174 113.001 281.207 112.981L282.797 112.04C282.816 112.029 282.832 112.015 282.845 111.998C282.858 111.981 282.867 111.962 282.871 111.941C282.875 111.92 282.874 111.899 282.869 111.879C282.863 111.859 282.853 111.84 282.839 111.823Z" fill="black"/>
<path opacity="0.1" d="M280.502 113.37L279.467 111.971C279.456 111.955 279.442 111.942 279.425 111.931C279.409 111.921 279.39 111.914 279.37 111.91C279.351 111.907 279.331 111.907 279.311 111.911C279.292 111.915 279.274 111.922 279.257 111.933L277.753 112.902C277.721 112.924 277.699 112.957 277.692 112.994C277.684 113.031 277.692 113.069 277.714 113.1L278.656 114.484C278.666 114.5 278.68 114.514 278.696 114.526C278.712 114.537 278.73 114.545 278.75 114.549C278.769 114.553 278.789 114.553 278.809 114.55C278.828 114.546 278.847 114.539 278.863 114.528L280.449 113.586C280.469 113.577 280.487 113.564 280.501 113.547C280.516 113.531 280.525 113.511 280.531 113.49C280.536 113.47 280.536 113.448 280.531 113.427C280.526 113.406 280.516 113.387 280.502 113.37Z" fill="black"/>
<path opacity="0.1" d="M278.43 114.741L277.402 113.354C277.379 113.324 277.344 113.304 277.306 113.297C277.267 113.291 277.228 113.299 277.195 113.32L275.691 114.286C275.658 114.308 275.635 114.341 275.627 114.378C275.619 114.416 275.627 114.455 275.649 114.487L276.591 115.871C276.613 115.902 276.647 115.924 276.685 115.932C276.724 115.94 276.764 115.934 276.798 115.914L278.387 114.973C278.409 114.963 278.428 114.949 278.443 114.93C278.457 114.912 278.467 114.89 278.471 114.868C278.476 114.845 278.474 114.822 278.467 114.8C278.459 114.778 278.447 114.757 278.43 114.741Z" fill="black"/>
<path opacity="0.1" d="M276.111 116.272L275.084 114.873C275.061 114.843 275.026 114.822 274.988 114.816C274.949 114.809 274.909 114.817 274.877 114.838L273.373 115.805C273.356 115.815 273.342 115.829 273.331 115.844C273.319 115.86 273.312 115.878 273.308 115.897C273.304 115.915 273.304 115.934 273.308 115.953C273.311 115.972 273.319 115.99 273.33 116.005L274.273 117.389C274.295 117.42 274.328 117.442 274.367 117.45C274.405 117.459 274.446 117.452 274.479 117.433L276.069 116.492C276.088 116.481 276.104 116.467 276.117 116.449C276.13 116.432 276.139 116.412 276.143 116.391C276.147 116.37 276.146 116.349 276.141 116.328C276.135 116.308 276.125 116.289 276.111 116.272Z" fill="black"/>
<path opacity="0.1" d="M273.865 117.747L272.838 116.347C272.827 116.332 272.813 116.318 272.796 116.308C272.78 116.298 272.762 116.291 272.742 116.287C272.723 116.284 272.703 116.284 272.684 116.288C272.665 116.292 272.647 116.299 272.631 116.31L271.127 117.279C271.11 117.289 271.096 117.303 271.085 117.318C271.074 117.334 271.066 117.351 271.062 117.369C271.058 117.388 271.058 117.407 271.062 117.425C271.066 117.444 271.073 117.461 271.084 117.477L272.027 118.861C272.048 118.892 272.082 118.915 272.121 118.923C272.159 118.931 272.2 118.925 272.233 118.904L273.823 117.963C273.842 117.953 273.858 117.939 273.871 117.922C273.884 117.905 273.893 117.885 273.897 117.864C273.901 117.844 273.9 117.823 273.895 117.802C273.889 117.782 273.879 117.763 273.865 117.747Z" fill="black"/>
<path opacity="0.1" d="M271.619 119.247L270.601 117.844C270.578 117.814 270.544 117.793 270.505 117.787C270.466 117.78 270.427 117.789 270.394 117.81L268.89 118.776C268.874 118.786 268.859 118.8 268.848 118.816C268.837 118.831 268.829 118.849 268.825 118.868C268.821 118.886 268.821 118.906 268.825 118.924C268.829 118.943 268.837 118.961 268.848 118.977L269.79 120.36C269.812 120.391 269.846 120.413 269.884 120.422C269.923 120.43 269.963 120.424 269.997 120.404L271.586 119.463C271.605 119.452 271.62 119.437 271.632 119.42C271.644 119.402 271.652 119.382 271.655 119.362C271.658 119.341 271.656 119.32 271.65 119.301C271.644 119.281 271.633 119.262 271.619 119.247Z" fill="black"/>
<path opacity="0.1" d="M269.373 120.731L268.346 119.331C268.335 119.316 268.321 119.302 268.304 119.292C268.288 119.282 268.27 119.275 268.25 119.271C268.231 119.268 268.211 119.268 268.192 119.272C268.173 119.275 268.155 119.283 268.139 119.294L266.635 120.257C266.618 120.267 266.604 120.28 266.593 120.296C266.582 120.311 266.574 120.329 266.57 120.347C266.566 120.365 266.566 120.384 266.57 120.403C266.573 120.421 266.581 120.439 266.592 120.454L267.535 121.838C267.556 121.87 267.59 121.892 267.629 121.901C267.667 121.909 267.708 121.902 267.741 121.882L269.331 120.941C269.349 120.93 269.364 120.916 269.376 120.9C269.389 120.883 269.397 120.865 269.401 120.845C269.405 120.825 269.405 120.805 269.4 120.785C269.395 120.765 269.386 120.747 269.373 120.731Z" fill="black"/>
<path opacity="0.1" d="M292.789 102.012L291.962 100.883C291.912 100.817 291.838 100.773 291.755 100.758C291.672 100.743 291.586 100.76 291.515 100.805L290.303 101.595C290.234 101.641 290.186 101.711 290.169 101.789C290.152 101.868 290.167 101.95 290.212 102.019L290.97 103.133C291.018 103.199 291.09 103.246 291.173 103.263C291.255 103.28 291.341 103.266 291.413 103.224L292.707 102.449C292.778 102.401 292.827 102.328 292.843 102.247C292.858 102.165 292.839 102.081 292.789 102.012Z" fill="black"/>
<path opacity="0.1" d="M289.555 97.5476L288.727 96.4118C288.678 96.3472 288.604 96.303 288.522 96.2884C288.44 96.2739 288.354 96.2899 288.284 96.3334L287.059 97.1209C286.99 97.1668 286.942 97.2363 286.925 97.3151C286.908 97.394 286.923 97.4761 286.967 97.5445L287.726 98.6583C287.773 98.7255 287.845 98.7728 287.928 98.7904C288.01 98.8079 288.097 98.7943 288.169 98.7524L289.463 97.9774C289.534 97.9315 289.583 97.8608 289.601 97.7804C289.618 97.7001 289.601 97.6165 289.555 97.5476Z" fill="black"/>
<path opacity="0.1" d="M290.586 103.468L289.759 102.342C289.709 102.277 289.636 102.233 289.553 102.218C289.471 102.204 289.386 102.22 289.315 102.263L288.091 103.051C288.022 103.097 287.974 103.167 287.958 103.245C287.941 103.324 287.957 103.406 288.002 103.474L288.757 104.588C288.804 104.655 288.876 104.703 288.959 104.72C289.042 104.738 289.128 104.724 289.201 104.682L290.494 103.907C290.531 103.884 290.562 103.855 290.587 103.82C290.611 103.786 290.628 103.747 290.637 103.706C290.645 103.665 290.645 103.623 290.637 103.582C290.628 103.541 290.611 103.502 290.586 103.468Z" fill="black"/>
<path opacity="0.1" d="M288.274 104.996L287.447 103.87C287.397 103.804 287.323 103.76 287.24 103.745C287.157 103.73 287.071 103.747 287 103.791L285.779 104.569C285.709 104.615 285.66 104.685 285.643 104.765C285.625 104.845 285.641 104.927 285.687 104.996L286.445 106.11C286.493 106.177 286.565 106.223 286.648 106.24C286.73 106.257 286.817 106.243 286.889 106.201L288.182 105.426C288.253 105.38 288.303 105.309 288.32 105.229C288.337 105.149 288.321 105.065 288.274 104.996Z" fill="black"/>
<path opacity="0.1" d="M285.933 106.546L285.109 105.417C285.059 105.351 284.985 105.306 284.902 105.292C284.819 105.277 284.733 105.294 284.662 105.338L283.437 106.138C283.369 106.185 283.321 106.254 283.305 106.333C283.288 106.412 283.304 106.494 283.349 106.562L284.107 107.676C284.155 107.742 284.227 107.789 284.31 107.806C284.392 107.823 284.479 107.809 284.551 107.767L285.841 106.992C285.879 106.969 285.911 106.939 285.936 106.904C285.961 106.869 285.978 106.829 285.987 106.788C285.995 106.746 285.995 106.703 285.986 106.662C285.977 106.62 285.959 106.581 285.933 106.546Z" fill="black"/>
<path opacity="0.1" d="M287.404 99.0758L286.576 97.9494C286.527 97.8848 286.454 97.8406 286.371 97.826C286.289 97.8115 286.204 97.8275 286.133 97.871L284.908 98.6585C284.839 98.7044 284.791 98.7739 284.774 98.8527C284.757 98.9316 284.772 99.0137 284.816 99.0821L285.575 100.196C285.622 100.263 285.694 100.31 285.777 100.328C285.859 100.346 285.946 100.332 286.018 100.29L287.312 99.5151C287.349 99.4923 287.38 99.4627 287.404 99.4282C287.429 99.3936 287.446 99.3548 287.455 99.3139C287.463 99.273 287.463 99.2308 287.454 99.19C287.446 99.1491 287.429 99.1103 287.404 99.0758Z" fill="black"/>
<path opacity="0.1" d="M285.092 100.607L284.265 99.4772C284.215 99.4117 284.141 99.367 284.058 99.3523C283.975 99.3377 283.889 99.3544 283.818 99.3988L282.597 100.177C282.527 100.223 282.479 100.292 282.462 100.371C282.445 100.45 282.46 100.532 282.505 100.6L283.263 101.714C283.311 101.781 283.383 101.828 283.466 101.845C283.548 101.861 283.635 101.847 283.707 101.805L285 101.03C285.07 100.984 285.118 100.915 285.135 100.836C285.152 100.757 285.137 100.675 285.092 100.607Z" fill="black"/>
<path opacity="0.1" d="M282.751 102.154L281.924 101.027C281.875 100.962 281.801 100.917 281.719 100.902C281.637 100.887 281.551 100.903 281.48 100.946L280.256 101.746C280.187 101.792 280.139 101.862 280.123 101.941C280.106 102.019 280.122 102.101 280.167 102.169L280.925 103.283C280.972 103.35 281.045 103.398 281.127 103.415C281.21 103.433 281.296 103.419 281.369 103.377L282.659 102.599C282.697 102.576 282.729 102.547 282.754 102.511C282.779 102.476 282.796 102.437 282.805 102.395C282.814 102.354 282.813 102.311 282.804 102.269C282.795 102.228 282.777 102.188 282.751 102.154Z" fill="black"/>
<path opacity="0.1" d="M283.595 108.093L282.768 106.966C282.719 106.901 282.645 106.856 282.563 106.841C282.48 106.826 282.395 106.842 282.324 106.885L281.109 107.675C281.041 107.722 280.993 107.791 280.977 107.87C280.96 107.949 280.976 108.031 281.021 108.099L281.766 109.213C281.813 109.279 281.885 109.326 281.966 109.343C282.048 109.361 282.134 109.348 282.206 109.307L283.5 108.529C283.536 108.506 283.567 108.477 283.592 108.443C283.616 108.409 283.634 108.37 283.642 108.33C283.651 108.289 283.652 108.247 283.644 108.207C283.635 108.166 283.619 108.127 283.595 108.093Z" fill="black"/>
<path opacity="0.1" d="M281.257 109.64L280.43 108.513C280.38 108.448 280.306 108.403 280.223 108.388C280.139 108.374 280.054 108.39 279.983 108.435L278.761 109.222C278.692 109.268 278.644 109.338 278.627 109.417C278.61 109.495 278.625 109.578 278.669 109.646L279.428 110.76C279.475 110.827 279.547 110.874 279.63 110.892C279.712 110.909 279.799 110.896 279.871 110.854L281.165 110.079C281.202 110.056 281.233 110.027 281.258 109.992C281.282 109.957 281.299 109.919 281.308 109.878C281.316 109.837 281.316 109.795 281.307 109.754C281.299 109.713 281.282 109.674 281.257 109.64Z" fill="black"/>
<path opacity="0.1" d="M279.021 111.327L277.993 109.928C277.982 109.912 277.968 109.899 277.952 109.889C277.935 109.878 277.917 109.871 277.898 109.868C277.878 109.864 277.859 109.864 277.839 109.868C277.82 109.872 277.802 109.88 277.786 109.89L276.282 110.86C276.265 110.87 276.251 110.883 276.24 110.899C276.229 110.914 276.221 110.932 276.217 110.95C276.213 110.968 276.213 110.987 276.217 111.006C276.221 111.024 276.228 111.042 276.239 111.057L277.182 112.441C277.192 112.457 277.206 112.471 277.222 112.482C277.238 112.493 277.256 112.501 277.275 112.505C277.295 112.509 277.315 112.509 277.334 112.506C277.354 112.502 277.372 112.495 277.389 112.485L278.978 111.544C278.997 111.533 279.014 111.519 279.026 111.502C279.039 111.485 279.048 111.466 279.052 111.445C279.056 111.424 279.055 111.403 279.05 111.383C279.044 111.362 279.034 111.344 279.021 111.327Z" fill="black"/>
<path opacity="0.1" d="M276.949 112.699L275.921 111.296C275.898 111.266 275.864 111.245 275.825 111.239C275.786 111.233 275.747 111.241 275.714 111.262L274.214 112.228C274.181 112.25 274.158 112.283 274.15 112.32C274.142 112.358 274.149 112.397 274.171 112.429L275.113 113.812C275.135 113.844 275.169 113.866 275.208 113.874C275.246 113.882 275.286 113.876 275.32 113.856L276.91 112.915C276.929 112.905 276.946 112.891 276.96 112.874C276.973 112.857 276.982 112.837 276.985 112.816C276.989 112.795 276.988 112.774 276.982 112.753C276.975 112.733 276.964 112.714 276.949 112.699Z" fill="black"/>
<path opacity="0.1" d="M274.63 114.23L273.603 112.83C273.58 112.8 273.545 112.78 273.506 112.773C273.468 112.767 273.428 112.775 273.396 112.796L271.892 113.762C271.875 113.772 271.861 113.786 271.85 113.801C271.839 113.817 271.831 113.834 271.827 113.852C271.823 113.871 271.823 113.89 271.827 113.908C271.831 113.927 271.838 113.944 271.849 113.96L272.792 115.347C272.814 115.378 272.847 115.4 272.886 115.408C272.924 115.416 272.965 115.41 272.998 115.391L274.588 114.449C274.607 114.439 274.623 114.424 274.636 114.407C274.649 114.389 274.658 114.37 274.662 114.349C274.666 114.328 274.665 114.307 274.66 114.286C274.654 114.265 274.644 114.246 274.63 114.23Z" fill="black"/>
<path opacity="0.1" d="M272.384 115.717L271.357 114.318C271.346 114.302 271.332 114.289 271.315 114.278C271.299 114.268 271.281 114.261 271.261 114.257C271.242 114.254 271.222 114.254 271.203 114.258C271.184 114.262 271.166 114.269 271.15 114.28L269.646 115.237C269.629 115.247 269.615 115.26 269.604 115.276C269.593 115.291 269.585 115.309 269.581 115.327C269.577 115.346 269.577 115.365 269.581 115.383C269.585 115.401 269.592 115.419 269.603 115.435L270.546 116.818C270.567 116.85 270.601 116.872 270.64 116.881C270.678 116.889 270.719 116.882 270.752 116.862L272.342 115.921C272.359 115.91 272.374 115.897 272.385 115.881C272.397 115.865 272.405 115.847 272.408 115.828C272.412 115.809 272.412 115.789 272.408 115.77C272.404 115.751 272.396 115.733 272.384 115.717Z" fill="black"/>
<path opacity="0.1" d="M286.734 102.872L285.907 101.745C285.857 101.681 285.784 101.637 285.702 101.622C285.619 101.607 285.534 101.623 285.464 101.667L284.239 102.458C284.17 102.504 284.122 102.574 284.106 102.652C284.089 102.731 284.105 102.813 284.15 102.881L284.909 103.995C284.956 104.061 285.028 104.107 285.11 104.124C285.192 104.141 285.277 104.127 285.349 104.086L286.642 103.311C286.679 103.288 286.71 103.259 286.735 103.224C286.759 103.19 286.776 103.151 286.785 103.11C286.793 103.069 286.793 103.027 286.785 102.986C286.776 102.945 286.759 102.906 286.734 102.872Z" fill="black"/>
<path opacity="0.1" d="M284.393 104.422L283.565 103.292C283.516 103.227 283.442 103.182 283.359 103.167C283.275 103.153 283.19 103.169 283.119 103.214L281.897 104.004C281.828 104.05 281.78 104.12 281.763 104.199C281.746 104.277 281.761 104.36 281.805 104.428L282.564 105.542C282.611 105.609 282.683 105.656 282.766 105.674C282.848 105.691 282.935 105.678 283.007 105.636L284.301 104.858C284.337 104.835 284.368 104.806 284.392 104.771C284.416 104.737 284.433 104.698 284.442 104.658C284.45 104.617 284.45 104.576 284.442 104.535C284.434 104.495 284.417 104.456 284.393 104.422Z" fill="black"/>
<path opacity="0.1" d="M282.058 105.969L281.231 104.842C281.181 104.777 281.107 104.732 281.024 104.718C280.941 104.703 280.855 104.72 280.784 104.764L279.559 105.552C279.491 105.598 279.443 105.668 279.426 105.746C279.41 105.825 279.426 105.907 279.471 105.975L280.229 107.089C280.276 107.156 280.348 107.203 280.431 107.221C280.514 107.238 280.6 107.225 280.672 107.183L281.963 106.405C281.999 106.382 282.031 106.353 282.055 106.319C282.08 106.285 282.097 106.246 282.106 106.206C282.114 106.165 282.115 106.123 282.107 106.083C282.098 106.042 282.082 106.003 282.058 105.969Z" fill="black"/>
<path opacity="0.1" d="M279.717 107.515L278.889 106.389C278.84 106.324 278.766 106.28 278.684 106.266C278.602 106.251 278.516 106.267 278.446 106.31L277.221 107.098C277.152 107.144 277.105 107.214 277.088 107.293C277.072 107.372 277.088 107.454 277.132 107.522L277.891 108.648C277.938 108.714 278.01 108.761 278.091 108.779C278.173 108.796 278.259 108.783 278.331 108.742L279.625 107.967C279.663 107.944 279.696 107.914 279.722 107.879C279.748 107.843 279.765 107.803 279.774 107.76C279.783 107.718 279.782 107.674 279.772 107.632C279.762 107.59 279.744 107.55 279.717 107.515Z" fill="black"/>
<path opacity="0.1" d="M277.497 109.203L276.469 107.804C276.458 107.788 276.444 107.775 276.428 107.765C276.412 107.754 276.393 107.747 276.374 107.744C276.355 107.74 276.335 107.74 276.316 107.744C276.297 107.748 276.278 107.756 276.262 107.766L274.758 108.736C274.726 108.757 274.703 108.789 274.695 108.826C274.687 108.863 274.694 108.902 274.716 108.933L275.658 110.32C275.669 110.336 275.683 110.35 275.699 110.36C275.715 110.371 275.733 110.378 275.753 110.382C275.772 110.386 275.792 110.386 275.811 110.382C275.83 110.379 275.849 110.371 275.865 110.361L277.454 109.42C277.473 109.409 277.49 109.395 277.503 109.378C277.515 109.361 277.524 109.342 277.528 109.321C277.532 109.3 277.532 109.279 277.526 109.259C277.521 109.238 277.511 109.22 277.497 109.203Z" fill="black"/>
<path opacity="0.1" d="M275.412 110.574L274.384 109.172C274.361 109.141 274.326 109.121 274.287 109.114C274.247 109.108 274.207 109.116 274.174 109.137L272.674 110.104C272.641 110.125 272.618 110.158 272.61 110.196C272.602 110.233 272.609 110.272 272.631 110.305L273.573 111.688C273.595 111.72 273.629 111.742 273.667 111.751C273.706 111.759 273.747 111.752 273.78 111.732L275.37 110.791C275.389 110.781 275.405 110.766 275.418 110.749C275.431 110.732 275.439 110.713 275.443 110.692C275.447 110.672 275.447 110.65 275.441 110.63C275.436 110.61 275.426 110.591 275.412 110.574Z" fill="black"/>
<path opacity="0.1" d="M273.094 112.099L272.066 110.697C272.042 110.666 272.007 110.646 271.968 110.639C271.929 110.633 271.889 110.641 271.856 110.662L270.352 111.629C270.32 111.651 270.297 111.684 270.289 111.721C270.281 111.758 270.288 111.797 270.309 111.829L271.255 113.213C271.276 113.245 271.31 113.267 271.349 113.276C271.388 113.284 271.428 113.277 271.462 113.257L273.048 112.316C273.067 112.306 273.085 112.292 273.098 112.275C273.112 112.259 273.121 112.239 273.125 112.218C273.13 112.197 273.129 112.176 273.124 112.155C273.118 112.135 273.108 112.116 273.094 112.099Z" fill="black"/>
<path opacity="0.1" d="M270.848 113.593L269.82 112.193C269.809 112.178 269.795 112.164 269.778 112.154C269.761 112.143 269.743 112.136 269.723 112.133C269.704 112.129 269.684 112.13 269.664 112.133C269.645 112.137 269.626 112.145 269.61 112.156L268.106 113.125C268.074 113.147 268.052 113.179 268.044 113.216C268.037 113.253 268.045 113.291 268.067 113.323L269.009 114.706C269.019 114.723 269.033 114.737 269.049 114.748C269.065 114.76 269.083 114.767 269.102 114.772C269.122 114.776 269.142 114.776 269.161 114.772C269.181 114.769 269.2 114.761 269.216 114.75L270.802 113.809C270.822 113.799 270.839 113.786 270.852 113.769C270.866 113.752 270.875 113.732 270.88 113.711C270.884 113.691 270.883 113.669 270.878 113.649C270.872 113.628 270.862 113.609 270.848 113.593Z" fill="black"/>
<path opacity="0.1" d="M270.138 117.201L269.111 115.802C269.088 115.771 269.053 115.751 269.014 115.744C268.976 115.738 268.936 115.746 268.904 115.767L267.4 116.733C267.383 116.744 267.369 116.757 267.358 116.772C267.347 116.788 267.339 116.805 267.335 116.824C267.331 116.842 267.331 116.861 267.335 116.879C267.338 116.898 267.346 116.915 267.357 116.931L268.299 118.318C268.322 118.349 268.355 118.371 268.394 118.379C268.432 118.387 268.473 118.381 268.506 118.362L270.096 117.421C270.115 117.41 270.131 117.395 270.144 117.378C270.157 117.361 270.166 117.341 270.17 117.32C270.174 117.299 270.173 117.278 270.168 117.257C270.162 117.237 270.152 117.217 270.138 117.201Z" fill="black"/>
<path opacity="0.1" d="M267.892 118.688L266.865 117.289C266.854 117.273 266.84 117.26 266.823 117.25C266.807 117.239 266.789 117.232 266.769 117.229C266.75 117.225 266.73 117.225 266.711 117.229C266.692 117.233 266.674 117.24 266.658 117.251L265.154 118.221C265.137 118.231 265.123 118.244 265.112 118.259C265.101 118.275 265.093 118.292 265.089 118.311C265.085 118.329 265.085 118.348 265.089 118.367C265.092 118.385 265.1 118.403 265.111 118.418L266.053 119.802C266.075 119.834 266.109 119.856 266.147 119.864C266.186 119.873 266.227 119.866 266.26 119.846L267.85 118.905C267.869 118.894 267.885 118.88 267.898 118.863C267.911 118.846 267.919 118.826 267.924 118.806C267.928 118.785 267.927 118.764 267.921 118.744C267.916 118.723 267.906 118.704 267.892 118.688Z" fill="black"/>
<path opacity="0.1" d="M271.419 109.796L270.434 108.478C270.403 108.438 270.356 108.41 270.304 108.401C270.252 108.392 270.198 108.403 270.155 108.431L268.736 109.344C268.714 109.358 268.695 109.376 268.68 109.397C268.665 109.418 268.655 109.442 268.65 109.467C268.645 109.491 268.645 109.517 268.65 109.542C268.655 109.567 268.665 109.59 268.68 109.611L269.567 110.913C269.58 110.935 269.599 110.953 269.62 110.968C269.641 110.983 269.666 110.993 269.691 110.999C269.717 111.004 269.744 111.005 269.77 111C269.796 110.996 269.82 110.987 269.843 110.973L271.343 110.072C271.368 110.06 271.39 110.042 271.407 110.021C271.424 110 271.437 109.976 271.444 109.95C271.451 109.924 271.453 109.897 271.448 109.871C271.444 109.844 271.434 109.819 271.419 109.796Z" fill="black"/>
<path opacity="0.1" d="M269.173 111.283L268.204 109.966C268.19 109.945 268.171 109.927 268.148 109.913C268.126 109.899 268.102 109.89 268.076 109.885C268.05 109.88 268.023 109.881 267.997 109.886C267.972 109.891 267.947 109.901 267.925 109.915L266.507 110.844C266.485 110.858 266.466 110.875 266.451 110.896C266.436 110.917 266.426 110.94 266.421 110.965C266.416 110.989 266.416 111.015 266.421 111.039C266.426 111.064 266.436 111.087 266.451 111.108L267.337 112.413C267.366 112.455 267.411 112.485 267.463 112.496C267.514 112.507 267.568 112.499 267.613 112.473L269.114 111.572C269.139 111.558 269.161 111.539 269.178 111.517C269.195 111.494 269.207 111.468 269.213 111.441C269.218 111.413 269.218 111.385 269.211 111.358C269.204 111.331 269.191 111.305 269.173 111.283Z" fill="black"/>
<path opacity="0.1" d="M266.927 112.771L265.958 111.45C265.927 111.409 265.881 111.381 265.829 111.372C265.777 111.363 265.723 111.374 265.679 111.403L264.261 112.316C264.239 112.33 264.22 112.348 264.205 112.368C264.19 112.389 264.18 112.413 264.175 112.438C264.169 112.463 264.169 112.488 264.175 112.513C264.18 112.538 264.19 112.561 264.205 112.582L265.091 113.884C265.105 113.906 265.123 113.925 265.145 113.939C265.166 113.954 265.19 113.964 265.216 113.97C265.242 113.975 265.268 113.976 265.294 113.972C265.32 113.967 265.345 113.958 265.367 113.944L266.868 113.044C266.891 113.03 266.911 113.012 266.927 112.99C266.943 112.969 266.954 112.945 266.959 112.919C266.965 112.894 266.965 112.867 266.959 112.842C266.954 112.816 266.943 112.792 266.927 112.771Z" fill="black"/>
<path opacity="0.1" d="M264.711 114.295L263.683 112.893C263.66 112.863 263.625 112.842 263.587 112.836C263.548 112.829 263.508 112.837 263.476 112.858L261.972 113.825C261.939 113.846 261.916 113.879 261.908 113.917C261.9 113.954 261.908 113.993 261.929 114.026L262.872 115.409C262.894 115.44 262.927 115.462 262.966 115.47C263.004 115.479 263.045 115.472 263.079 115.453L264.668 114.512C264.688 114.502 264.705 114.489 264.719 114.471C264.732 114.454 264.741 114.435 264.746 114.414C264.75 114.393 264.749 114.371 264.743 114.351C264.737 114.33 264.726 114.311 264.711 114.295Z" fill="black"/>
<path opacity="0.1" d="M291.288 99.8158L290.398 98.6079C290.348 98.5429 290.274 98.4988 290.191 98.4848C290.108 98.4707 290.022 98.4879 289.952 98.5326L286.478 100.857C286.41 100.904 286.364 100.974 286.348 101.052C286.333 101.13 286.348 101.211 286.392 101.278L287.23 102.514C287.254 102.548 287.285 102.578 287.321 102.6C287.357 102.623 287.397 102.639 287.44 102.647C287.482 102.655 287.526 102.655 287.568 102.646C287.61 102.638 287.65 102.622 287.686 102.599L291.213 100.243C291.28 100.194 291.326 100.123 291.34 100.044C291.354 99.9642 291.336 99.8826 291.288 99.8158Z" fill="black"/>
<path opacity="0.1" d="M268.595 115.033L267.505 113.561C267.494 113.545 267.48 113.532 267.463 113.522C267.446 113.511 267.427 113.504 267.408 113.501C267.388 113.498 267.368 113.498 267.349 113.503C267.329 113.507 267.311 113.515 267.295 113.527L263.545 116.037C263.513 116.058 263.491 116.09 263.484 116.126C263.476 116.163 263.484 116.2 263.506 116.231L264.53 117.747C264.541 117.763 264.555 117.777 264.572 117.788C264.589 117.799 264.608 117.807 264.628 117.81C264.648 117.814 264.668 117.814 264.688 117.81C264.708 117.806 264.727 117.798 264.744 117.787L268.556 115.237C268.589 115.214 268.612 115.18 268.619 115.142C268.627 115.104 268.618 115.065 268.595 115.033Z" fill="black"/>
<path opacity="0.1" d="M280.525 103.779L279.52 102.373C279.498 102.342 279.463 102.321 279.425 102.314C279.386 102.307 279.346 102.315 279.313 102.335L270.986 107.707C270.953 107.728 270.93 107.76 270.922 107.797C270.914 107.834 270.922 107.873 270.943 107.904L271.971 109.41C271.982 109.427 271.996 109.441 272.013 109.452C272.03 109.463 272.049 109.47 272.069 109.474C272.089 109.478 272.109 109.478 272.129 109.474C272.149 109.47 272.168 109.462 272.184 109.451L280.486 103.979C280.502 103.969 280.516 103.955 280.527 103.939C280.538 103.923 280.545 103.905 280.549 103.887C280.552 103.868 280.552 103.849 280.548 103.83C280.544 103.812 280.536 103.794 280.525 103.779Z" fill="black"/>
</g>
<path d="M294.487 104.092L293.66 102.963C293.61 102.897 293.536 102.852 293.453 102.838C293.37 102.823 293.284 102.84 293.213 102.884L291.991 103.675C291.922 103.721 291.874 103.79 291.857 103.869C291.84 103.948 291.855 104.03 291.9 104.098L292.658 105.212C292.705 105.279 292.777 105.327 292.86 105.344C292.943 105.362 293.029 105.348 293.101 105.306L294.395 104.528C294.431 104.505 294.462 104.476 294.486 104.442C294.511 104.407 294.527 104.369 294.536 104.328C294.545 104.288 294.545 104.246 294.536 104.206C294.528 104.165 294.511 104.126 294.487 104.092Z" fill="#464A5F"/>
<path d="M292.274 105.548L291.446 104.422C291.397 104.357 291.323 104.313 291.241 104.298C291.158 104.284 291.073 104.3 291.003 104.343L289.778 105.131C289.709 105.177 289.661 105.246 289.644 105.325C289.626 105.404 289.642 105.486 289.686 105.554L290.445 106.668C290.492 106.735 290.564 106.783 290.647 106.8C290.729 106.818 290.816 106.804 290.888 106.762L292.182 105.987C292.218 105.964 292.25 105.935 292.274 105.9C292.299 105.866 292.316 105.827 292.324 105.786C292.333 105.745 292.333 105.703 292.324 105.662C292.315 105.621 292.298 105.582 292.274 105.548Z" fill="#464A5F"/>
<path d="M289.975 107.079L289.148 105.953C289.098 105.887 289.024 105.843 288.941 105.828C288.858 105.813 288.772 105.83 288.701 105.874L287.48 106.665C287.41 106.711 287.362 106.78 287.345 106.859C287.328 106.938 287.343 107.02 287.388 107.089L288.146 108.202C288.194 108.269 288.266 108.316 288.349 108.333C288.431 108.35 288.518 108.336 288.589 108.293L289.883 107.518C289.92 107.496 289.951 107.466 289.976 107.431C290 107.397 290.017 107.358 290.026 107.317C290.034 107.276 290.034 107.234 290.026 107.193C290.017 107.152 290 107.114 289.975 107.079Z" fill="#464A5F"/>
<path d="M287.631 108.626L286.803 107.496C286.754 107.432 286.68 107.388 286.598 107.373C286.515 107.358 286.43 107.374 286.36 107.418L285.135 108.209C285.099 108.232 285.068 108.262 285.044 108.296C285.02 108.331 285.004 108.37 284.996 108.411C284.988 108.452 284.989 108.494 284.998 108.535C285.007 108.575 285.025 108.614 285.05 108.648L285.808 109.762C285.855 109.829 285.927 109.876 286.01 109.894C286.093 109.911 286.179 109.898 286.251 109.856L287.542 109.078C287.58 109.055 287.613 109.024 287.638 108.989C287.664 108.953 287.681 108.913 287.689 108.87C287.698 108.828 287.697 108.784 287.687 108.742C287.676 108.7 287.657 108.66 287.631 108.626Z" fill="#464A5F"/>
<path d="M285.293 110.172L284.465 109.046C284.416 108.981 284.342 108.937 284.26 108.923C284.177 108.908 284.092 108.924 284.022 108.968L282.797 109.755C282.728 109.802 282.681 109.871 282.664 109.95C282.648 110.029 282.664 110.111 282.708 110.179L283.464 111.293C283.511 111.36 283.583 111.407 283.666 111.425C283.748 111.442 283.835 111.429 283.907 111.387L285.201 110.609C285.237 110.586 285.268 110.556 285.292 110.522C285.316 110.488 285.333 110.449 285.342 110.409C285.35 110.368 285.35 110.327 285.342 110.286C285.333 110.245 285.317 110.207 285.293 110.172Z" fill="#464A5F"/>
<path d="M283.056 111.86L282.028 110.461C282.018 110.446 282.004 110.432 281.987 110.422C281.971 110.412 281.953 110.404 281.933 110.401C281.914 110.397 281.894 110.398 281.875 110.401C281.856 110.405 281.838 110.413 281.822 110.423L280.318 111.393C280.301 111.403 280.287 111.416 280.276 111.432C280.265 111.447 280.257 111.465 280.253 111.483C280.249 111.502 280.249 111.521 280.253 111.539C280.256 111.558 280.264 111.575 280.275 111.591L281.217 112.974C281.239 113.006 281.273 113.029 281.311 113.037C281.35 113.045 281.391 113.038 281.424 113.018L283.014 112.077C283.033 112.067 283.049 112.052 283.062 112.035C283.075 112.018 283.083 111.999 283.087 111.978C283.091 111.958 283.091 111.936 283.085 111.916C283.08 111.896 283.07 111.877 283.056 111.86Z" fill="#464A5F"/>
<path d="M280.718 113.408L279.691 112.008C279.679 111.993 279.665 111.979 279.649 111.969C279.632 111.958 279.613 111.951 279.594 111.948C279.574 111.944 279.554 111.945 279.535 111.948C279.515 111.952 279.497 111.96 279.481 111.971L277.98 112.94C277.963 112.95 277.949 112.963 277.938 112.979C277.927 112.994 277.919 113.012 277.915 113.03C277.911 113.049 277.911 113.068 277.915 113.086C277.919 113.105 277.926 113.122 277.937 113.138L278.88 114.525C278.89 114.54 278.904 114.554 278.92 114.565C278.937 114.575 278.955 114.583 278.974 114.586C278.993 114.59 279.013 114.59 279.033 114.587C279.052 114.583 279.07 114.576 279.086 114.565L280.676 113.624C280.694 113.613 280.711 113.599 280.723 113.582C280.735 113.565 280.744 113.545 280.748 113.525C280.752 113.505 280.751 113.483 280.746 113.463C280.741 113.443 280.732 113.424 280.718 113.408Z" fill="#464A5F"/>
<path d="M278.647 114.779L277.619 113.376C277.596 113.346 277.561 113.325 277.523 113.319C277.484 113.313 277.444 113.321 277.412 113.342L275.908 114.296C275.875 114.317 275.852 114.35 275.844 114.388C275.836 114.425 275.844 114.464 275.865 114.496L276.808 115.88C276.83 115.911 276.864 115.933 276.902 115.941C276.941 115.949 276.981 115.943 277.015 115.924L278.604 114.983C278.621 114.972 278.636 114.959 278.647 114.943C278.659 114.926 278.667 114.908 278.671 114.889C278.675 114.87 278.675 114.851 278.67 114.832C278.666 114.813 278.658 114.795 278.647 114.779Z" fill="#464A5F"/>
<path d="M276.328 116.313L275.3 114.923C275.277 114.892 275.243 114.872 275.204 114.865C275.166 114.859 275.126 114.867 275.094 114.888L273.59 115.854C273.573 115.865 273.559 115.878 273.547 115.894C273.536 115.91 273.528 115.928 273.525 115.946C273.521 115.965 273.52 115.984 273.524 116.003C273.528 116.022 273.536 116.039 273.547 116.055L274.489 117.439C274.511 117.47 274.545 117.492 274.584 117.5C274.622 117.508 274.662 117.502 274.696 117.483L276.285 116.542C276.307 116.532 276.325 116.517 276.34 116.499C276.354 116.481 276.363 116.46 276.368 116.437C276.372 116.415 276.37 116.392 276.363 116.371C276.357 116.349 276.345 116.329 276.328 116.313Z" fill="#464A5F"/>
<path d="M274.082 117.797L273.054 116.398C273.044 116.382 273.03 116.369 273.013 116.358C272.997 116.348 272.979 116.341 272.959 116.337C272.94 116.334 272.92 116.334 272.901 116.338C272.882 116.342 272.864 116.349 272.848 116.36L271.344 117.33C271.327 117.34 271.313 117.353 271.302 117.368C271.291 117.384 271.283 117.401 271.279 117.42C271.275 117.438 271.275 117.457 271.279 117.476C271.282 117.494 271.29 117.512 271.301 117.527L272.243 118.911C272.254 118.927 272.267 118.941 272.283 118.952C272.3 118.963 272.318 118.97 272.337 118.975C272.356 118.979 272.376 118.979 272.396 118.976C272.415 118.972 272.434 118.965 272.45 118.955L274.04 118.013C274.059 118.003 274.075 117.989 274.088 117.972C274.101 117.955 274.109 117.935 274.113 117.915C274.118 117.894 274.117 117.873 274.111 117.853C274.106 117.832 274.096 117.813 274.082 117.797Z" fill="#464A5F"/>
<path d="M271.836 119.284L270.808 117.882C270.785 117.851 270.751 117.831 270.712 117.824C270.673 117.818 270.634 117.826 270.601 117.847L269.097 118.813C269.064 118.835 269.041 118.868 269.033 118.906C269.026 118.943 269.033 118.982 269.055 119.014L269.997 120.398C270.019 120.429 270.053 120.451 270.091 120.459C270.13 120.467 270.17 120.461 270.204 120.442L271.793 119.501C271.812 119.49 271.829 119.476 271.842 119.459C271.854 119.442 271.863 119.422 271.867 119.402C271.871 119.381 271.87 119.36 271.865 119.34C271.86 119.319 271.85 119.3 271.836 119.284Z" fill="#464A5F"/>
<path d="M269.59 120.768L268.562 119.369C268.551 119.353 268.537 119.34 268.521 119.33C268.505 119.319 268.486 119.312 268.467 119.309C268.448 119.305 268.428 119.305 268.409 119.309C268.39 119.313 268.372 119.321 268.355 119.331L266.852 120.301C266.835 120.311 266.821 120.324 266.81 120.34C266.798 120.355 266.791 120.373 266.787 120.391C266.783 120.409 266.783 120.428 266.786 120.447C266.79 120.465 266.798 120.483 266.809 120.498L267.751 121.882C267.762 121.898 267.775 121.912 267.791 121.923C267.807 121.934 267.826 121.942 267.845 121.946C267.864 121.95 267.884 121.95 267.904 121.947C267.923 121.943 267.942 121.936 267.958 121.926L269.547 120.985C269.566 120.974 269.583 120.96 269.596 120.943C269.608 120.926 269.617 120.906 269.621 120.886C269.625 120.865 269.625 120.844 269.619 120.824C269.614 120.803 269.604 120.784 269.59 120.768Z" fill="#464A5F"/>
<path d="M293.006 102.059L292.179 100.929C292.129 100.865 292.056 100.821 291.973 100.806C291.891 100.791 291.806 100.808 291.735 100.851L290.51 101.642C290.442 101.688 290.394 101.758 290.378 101.837C290.361 101.915 290.377 101.997 290.422 102.065L291.177 103.179C291.224 103.246 291.296 103.294 291.379 103.311C291.462 103.329 291.548 103.315 291.62 103.273L292.914 102.495C292.95 102.472 292.981 102.443 293.005 102.409C293.03 102.374 293.046 102.336 293.055 102.295C293.063 102.255 293.064 102.213 293.055 102.172C293.047 102.132 293.03 102.093 293.006 102.059Z" fill="#464A5F"/>
<path d="M289.771 97.5851L288.944 96.4587C288.894 96.3941 288.821 96.3499 288.739 96.3353C288.656 96.3207 288.571 96.3368 288.501 96.3803L287.276 97.1678C287.207 97.2141 287.16 97.2839 287.143 97.3627C287.127 97.4415 287.142 97.5233 287.187 97.5913L287.946 98.7051C287.993 98.7715 288.064 98.8183 288.146 98.8358C288.228 98.8533 288.314 98.8402 288.386 98.7993L289.679 98.0243C289.716 98.0015 289.747 97.972 289.772 97.9374C289.796 97.9029 289.813 97.864 289.822 97.8231C289.831 97.7822 289.83 97.7401 289.822 97.6992C289.813 97.6584 289.796 97.6195 289.771 97.5851Z" fill="#464A5F"/>
<path d="M290.803 103.505L289.975 102.373C289.926 102.308 289.852 102.264 289.77 102.249C289.688 102.235 289.602 102.251 289.532 102.294L288.307 103.082C288.238 103.128 288.191 103.198 288.174 103.277C288.158 103.356 288.174 103.437 288.219 103.505L288.977 104.619C289.024 104.686 289.096 104.732 289.178 104.75C289.259 104.767 289.345 104.754 289.417 104.713L290.711 103.938C290.783 103.892 290.833 103.821 290.85 103.74C290.867 103.659 290.85 103.575 290.803 103.505Z" fill="#464A5F"/>
<path d="M288.491 105.033L287.676 103.907C287.627 103.842 287.553 103.798 287.471 103.784C287.389 103.769 287.304 103.785 287.233 103.829L286.008 104.616C285.939 104.662 285.891 104.733 285.874 104.812C285.857 104.892 285.874 104.974 285.92 105.043L286.675 106.157C286.722 106.223 286.795 106.27 286.877 106.287C286.96 106.304 287.046 106.29 287.118 106.248L288.412 105.473C288.447 105.449 288.478 105.419 288.501 105.384C288.524 105.349 288.54 105.309 288.547 105.269C288.554 105.228 288.553 105.186 288.544 105.146C288.534 105.105 288.516 105.067 288.491 105.033Z" fill="#464A5F"/>
<path d="M286.153 106.583L285.325 105.454C285.276 105.388 285.202 105.344 285.119 105.329C285.035 105.314 284.95 105.331 284.879 105.375L283.657 106.166C283.588 106.212 283.54 106.281 283.523 106.36C283.506 106.439 283.521 106.521 283.565 106.59L284.324 107.703C284.371 107.771 284.443 107.818 284.526 107.835C284.608 107.853 284.695 107.839 284.767 107.797L286.061 107.019C286.097 106.997 286.128 106.967 286.152 106.933C286.176 106.899 286.193 106.86 286.202 106.82C286.21 106.779 286.21 106.737 286.202 106.697C286.194 106.656 286.177 106.618 286.153 106.583Z" fill="#464A5F"/>
<path d="M287.621 99.1133L286.793 97.9807C286.744 97.916 286.67 97.8719 286.588 97.8573C286.506 97.8427 286.421 97.8588 286.35 97.9023L285.125 98.6898C285.057 98.7361 285.009 98.8058 284.993 98.8846C284.976 98.9635 284.992 99.0453 285.037 99.1133L285.795 100.227C285.842 100.294 285.914 100.34 285.996 100.358C286.077 100.375 286.163 100.362 286.235 100.321L287.529 99.5463C287.601 99.5003 287.651 99.429 287.668 99.3479C287.685 99.2668 287.668 99.1825 287.621 99.1133Z" fill="#464A5F"/>
<path d="M285.309 100.644L284.482 99.5149C284.432 99.4502 284.359 99.4061 284.276 99.3915C284.194 99.3769 284.109 99.393 284.038 99.4364L282.814 100.227C282.744 100.273 282.696 100.342 282.679 100.421C282.662 100.5 282.677 100.582 282.722 100.651L283.48 101.764C283.527 101.832 283.599 101.879 283.682 101.897C283.765 101.914 283.851 101.9 283.923 101.859L285.217 101.08C285.253 101.058 285.284 101.028 285.308 100.994C285.333 100.96 285.349 100.921 285.358 100.881C285.367 100.84 285.367 100.798 285.358 100.758C285.35 100.717 285.333 100.679 285.309 100.644Z" fill="#464A5F"/>
<path d="M282.971 102.191L282.143 101.065C282.094 100.999 282.02 100.954 281.937 100.94C281.853 100.925 281.767 100.942 281.697 100.986L280.475 101.774C280.406 101.82 280.358 101.889 280.341 101.968C280.324 102.047 280.339 102.129 280.383 102.197L281.142 103.314C281.189 103.381 281.261 103.429 281.344 103.446C281.426 103.464 281.513 103.45 281.585 103.408L282.876 102.63C282.912 102.608 282.944 102.578 282.969 102.544C282.994 102.509 283.011 102.471 283.02 102.43C283.029 102.389 283.029 102.347 283.021 102.306C283.012 102.265 282.995 102.226 282.971 102.191Z" fill="#464A5F"/>
<path d="M283.812 108.13L282.984 107.004C282.935 106.939 282.861 106.895 282.779 106.88C282.696 106.866 282.611 106.882 282.541 106.925L281.316 107.706C281.247 107.753 281.2 107.823 281.183 107.901C281.167 107.98 281.183 108.062 281.227 108.13L281.986 109.244C282.033 109.31 282.105 109.357 282.186 109.374C282.268 109.392 282.354 109.379 282.426 109.338L283.72 108.56C283.791 108.514 283.84 108.443 283.857 108.363C283.875 108.282 283.858 108.199 283.812 108.13Z" fill="#464A5F"/>
<path d="M281.474 109.677L280.646 108.551C280.597 108.486 280.523 108.442 280.441 108.427C280.358 108.413 280.273 108.429 280.203 108.472L278.978 109.275C278.909 109.321 278.861 109.391 278.844 109.469C278.826 109.548 278.842 109.63 278.886 109.699L279.645 110.813C279.692 110.88 279.764 110.927 279.847 110.945C279.929 110.962 280.016 110.949 280.088 110.907L281.382 110.132C281.421 110.109 281.454 110.079 281.48 110.043C281.506 110.007 281.524 109.967 281.533 109.924C281.541 109.881 281.541 109.837 281.53 109.794C281.52 109.752 281.501 109.712 281.474 109.677Z" fill="#464A5F"/>
<path d="M279.237 111.365L278.21 109.966C278.199 109.95 278.185 109.937 278.168 109.926C278.152 109.916 278.134 109.909 278.114 109.905C278.095 109.902 278.075 109.902 278.056 109.906C278.037 109.91 278.019 109.917 278.003 109.928L276.512 110.897C276.495 110.908 276.481 110.921 276.47 110.936C276.459 110.952 276.451 110.969 276.447 110.988C276.443 111.006 276.443 111.025 276.447 111.043C276.451 111.062 276.458 111.079 276.469 111.095L277.412 112.479C277.422 112.495 277.436 112.509 277.452 112.52C277.468 112.531 277.486 112.538 277.505 112.542C277.525 112.546 277.545 112.547 277.564 112.543C277.584 112.54 277.602 112.533 277.619 112.523L279.208 111.581C279.226 111.57 279.24 111.554 279.252 111.537C279.263 111.519 279.27 111.5 279.273 111.479C279.276 111.459 279.274 111.438 279.268 111.419C279.262 111.399 279.251 111.381 279.237 111.365Z" fill="#464A5F"/>
<path d="M277.169 112.727L276.141 111.324C276.117 111.294 276.082 111.273 276.043 111.267C276.004 111.26 275.964 111.269 275.931 111.29L274.427 112.256C274.395 112.278 274.372 112.311 274.364 112.349C274.356 112.386 274.363 112.424 274.384 112.457L275.33 113.841C275.351 113.872 275.385 113.895 275.424 113.903C275.463 113.911 275.503 113.905 275.537 113.884L277.123 112.943C277.142 112.934 277.16 112.92 277.173 112.903C277.187 112.886 277.196 112.866 277.2 112.846C277.205 112.825 277.204 112.803 277.199 112.783C277.193 112.762 277.183 112.743 277.169 112.727Z" fill="#464A5F"/>
<path d="M274.847 114.27L273.82 112.868C273.797 112.838 273.762 112.817 273.723 112.811C273.685 112.804 273.645 112.812 273.613 112.833L272.109 113.8C272.076 113.821 272.053 113.855 272.045 113.892C272.037 113.929 272.045 113.968 272.066 114.001L273.009 115.384C273.031 115.415 273.064 115.437 273.103 115.446C273.141 115.454 273.182 115.447 273.215 115.428L274.805 114.487C274.825 114.477 274.842 114.464 274.856 114.447C274.869 114.43 274.878 114.41 274.882 114.389C274.887 114.368 274.886 114.346 274.879 114.326C274.873 114.305 274.862 114.286 274.847 114.27Z" fill="#464A5F"/>
<path d="M272.605 115.755L271.587 114.355C271.576 114.34 271.562 114.326 271.545 114.316C271.529 114.306 271.511 114.298 271.492 114.295C271.472 114.291 271.452 114.292 271.433 114.296C271.414 114.299 271.396 114.307 271.38 114.318L269.876 115.287C269.843 115.308 269.82 115.341 269.812 115.378C269.804 115.414 269.812 115.453 269.833 115.485L270.776 116.868C270.797 116.9 270.831 116.923 270.87 116.931C270.908 116.939 270.949 116.932 270.982 116.912L272.572 115.971C272.591 115.96 272.607 115.946 272.619 115.928C272.631 115.911 272.639 115.891 272.642 115.87C272.645 115.849 272.643 115.828 272.637 115.808C272.63 115.788 272.619 115.77 272.605 115.755Z" fill="#464A5F"/>
<path d="M286.951 102.912L286.127 101.783C286.077 101.717 286.003 101.673 285.92 101.658C285.837 101.643 285.751 101.66 285.68 101.704L284.455 102.495C284.386 102.541 284.339 102.611 284.322 102.69C284.306 102.769 284.322 102.851 284.367 102.919L285.125 104.032C285.173 104.099 285.245 104.146 285.328 104.163C285.41 104.18 285.496 104.166 285.568 104.123L286.859 103.348C286.895 103.326 286.926 103.296 286.95 103.262C286.974 103.228 286.991 103.189 287 103.149C287.008 103.108 287.008 103.066 287 103.026C286.992 102.985 286.975 102.947 286.951 102.912Z" fill="#464A5F"/>
<path d="M284.613 104.459L283.785 103.333C283.736 103.268 283.663 103.223 283.581 103.208C283.498 103.193 283.413 103.208 283.342 103.251L282.117 104.042C282.048 104.088 282.001 104.158 281.984 104.237C281.968 104.316 281.984 104.398 282.029 104.466L282.787 105.579C282.834 105.646 282.906 105.693 282.988 105.71C283.069 105.728 283.155 105.714 283.227 105.673L284.521 104.895C284.557 104.873 284.588 104.843 284.612 104.809C284.636 104.775 284.653 104.736 284.662 104.696C284.67 104.655 284.67 104.613 284.662 104.573C284.654 104.532 284.637 104.494 284.613 104.459Z" fill="#464A5F"/>
<path d="M282.275 106.006L281.437 104.883C281.388 104.817 281.314 104.773 281.231 104.758C281.147 104.743 281.061 104.76 280.991 104.805L279.795 105.589C279.726 105.635 279.678 105.704 279.661 105.783C279.644 105.862 279.659 105.944 279.704 106.012L280.462 107.126C280.509 107.193 280.581 107.241 280.664 107.258C280.747 107.276 280.833 107.262 280.905 107.22L282.199 106.445C282.234 106.421 282.264 106.391 282.287 106.356C282.31 106.321 282.326 106.282 282.333 106.241C282.34 106.2 282.338 106.158 282.328 106.118C282.318 106.078 282.3 106.04 282.275 106.006Z" fill="#464A5F"/>
<path d="M279.934 107.553L279.106 106.426C279.057 106.362 278.983 106.318 278.901 106.303C278.818 106.289 278.733 106.305 278.663 106.348L277.438 107.136C277.369 107.182 277.322 107.252 277.305 107.33C277.289 107.409 277.304 107.491 277.349 107.559L278.108 108.673C278.155 108.739 278.226 108.786 278.308 108.804C278.39 108.821 278.476 108.808 278.548 108.767L279.842 107.992C279.878 107.969 279.91 107.94 279.934 107.905C279.959 107.871 279.976 107.832 279.984 107.791C279.993 107.75 279.993 107.708 279.984 107.667C279.975 107.626 279.958 107.587 279.934 107.553Z" fill="#464A5F"/>
<path d="M277.701 109.241L276.673 107.842C276.662 107.826 276.648 107.813 276.631 107.802C276.614 107.792 276.596 107.785 276.576 107.781C276.557 107.778 276.537 107.778 276.517 107.782C276.498 107.786 276.479 107.793 276.463 107.804L274.959 108.774C274.926 108.795 274.903 108.827 274.896 108.864C274.888 108.901 274.895 108.939 274.916 108.971L275.859 110.358C275.87 110.374 275.884 110.388 275.9 110.398C275.917 110.409 275.935 110.416 275.955 110.42C275.975 110.424 275.995 110.424 276.014 110.42C276.034 110.417 276.052 110.409 276.069 110.399L277.655 109.458C277.674 109.447 277.691 109.433 277.704 109.417C277.717 109.4 277.726 109.38 277.731 109.36C277.735 109.339 277.735 109.318 277.73 109.297C277.724 109.277 277.715 109.258 277.701 109.241Z" fill="#464A5F"/>
<path d="M275.629 110.612L274.601 109.213C274.59 109.197 274.576 109.184 274.56 109.173C274.543 109.163 274.525 109.156 274.506 109.152C274.486 109.149 274.467 109.149 274.447 109.153C274.428 109.157 274.41 109.164 274.394 109.175L272.9 110.141C272.867 110.163 272.844 110.196 272.836 110.233C272.828 110.271 272.836 110.31 272.857 110.342L273.8 111.726C273.822 111.757 273.855 111.779 273.894 111.787C273.932 111.795 273.973 111.789 274.007 111.77L275.596 110.828C275.614 110.817 275.63 110.802 275.642 110.785C275.653 110.768 275.661 110.748 275.664 110.727C275.667 110.707 275.666 110.686 275.66 110.666C275.653 110.646 275.643 110.628 275.629 110.612Z" fill="#464A5F"/>
<path d="M273.31 112.146L272.283 110.744C272.259 110.713 272.224 110.693 272.185 110.686C272.146 110.68 272.105 110.688 272.072 110.709L270.572 111.676C270.539 111.697 270.516 111.73 270.508 111.768C270.5 111.805 270.508 111.844 270.529 111.876L271.472 113.26C271.493 113.292 271.527 113.314 271.566 113.322C271.604 113.331 271.645 113.324 271.678 113.304L273.268 112.363C273.287 112.352 273.303 112.338 273.316 112.321C273.329 112.304 273.338 112.284 273.342 112.264C273.346 112.243 273.345 112.222 273.34 112.202C273.334 112.181 273.324 112.162 273.31 112.146Z" fill="#464A5F"/>
<path d="M271.064 113.63L270.037 112.231C270.025 112.215 270.011 112.202 269.994 112.191C269.978 112.181 269.959 112.174 269.94 112.17C269.92 112.167 269.9 112.167 269.881 112.171C269.861 112.175 269.843 112.183 269.826 112.193L268.326 113.163C268.309 113.173 268.295 113.186 268.284 113.202C268.273 113.217 268.265 113.235 268.261 113.253C268.257 113.271 268.257 113.29 268.261 113.309C268.265 113.327 268.272 113.345 268.283 113.36L269.226 114.747C269.236 114.763 269.25 114.777 269.266 114.787C269.282 114.798 269.301 114.805 269.32 114.809C269.339 114.813 269.359 114.813 269.378 114.809C269.398 114.806 269.416 114.798 269.432 114.788L271.022 113.847C271.04 113.836 271.056 113.822 271.069 113.805C271.081 113.787 271.09 113.768 271.094 113.748C271.098 113.727 271.097 113.706 271.092 113.686C271.087 113.666 271.078 113.647 271.064 113.63Z" fill="#464A5F"/>
<path d="M270.359 117.241L269.331 115.839C269.307 115.808 269.272 115.788 269.233 115.781C269.194 115.775 269.154 115.783 269.121 115.804L267.617 116.771C267.584 116.792 267.561 116.825 267.553 116.863C267.545 116.9 267.553 116.939 267.574 116.972L268.516 118.355C268.539 118.386 268.572 118.408 268.611 118.416C268.649 118.425 268.69 118.418 268.723 118.399L270.313 117.458C270.332 117.448 270.35 117.434 270.363 117.418C270.377 117.401 270.386 117.381 270.39 117.36C270.395 117.339 270.394 117.318 270.389 117.297C270.383 117.277 270.373 117.258 270.359 117.241Z" fill="#464A5F"/>
<path d="M268.112 118.725L267.084 117.326C267.073 117.31 267.059 117.297 267.042 117.287C267.025 117.276 267.007 117.269 266.987 117.266C266.968 117.262 266.948 117.262 266.928 117.266C266.909 117.27 266.891 117.278 266.874 117.288L265.37 118.258C265.337 118.279 265.315 118.312 265.307 118.348C265.299 118.385 265.306 118.424 265.328 118.456L266.27 119.839C266.281 119.855 266.295 119.869 266.311 119.88C266.327 119.891 266.346 119.899 266.365 119.903C266.385 119.907 266.405 119.908 266.425 119.904C266.445 119.901 266.463 119.894 266.48 119.883L268.066 118.942C268.086 118.932 268.103 118.918 268.117 118.902C268.13 118.885 268.139 118.865 268.144 118.844C268.148 118.823 268.148 118.802 268.142 118.781C268.137 118.761 268.126 118.742 268.112 118.725Z" fill="#464A5F"/>
<path d="M271.636 109.837L270.667 108.516C270.636 108.475 270.59 108.447 270.538 108.439C270.486 108.43 270.432 108.441 270.388 108.469L268.96 109.382C268.916 109.411 268.885 109.455 268.875 109.504C268.864 109.554 268.875 109.606 268.904 109.649L269.79 110.954C269.82 110.996 269.866 111.026 269.918 111.037C269.97 111.047 270.025 111.038 270.07 111.01L271.567 110.11C271.591 110.097 271.612 110.08 271.629 110.059C271.645 110.038 271.657 110.013 271.664 109.988C271.67 109.962 271.671 109.936 271.666 109.91C271.662 109.884 271.651 109.859 271.636 109.837Z" fill="#464A5F"/>
<path d="M269.39 111.321L268.421 110.003C268.406 109.982 268.387 109.965 268.365 109.951C268.343 109.937 268.318 109.927 268.292 109.923C268.266 109.918 268.24 109.918 268.214 109.924C268.188 109.929 268.163 109.939 268.142 109.953L266.723 110.869C266.679 110.897 266.649 110.941 266.639 110.99C266.628 111.039 266.639 111.091 266.667 111.133L267.554 112.438C267.583 112.48 267.629 112.51 267.681 112.521C267.733 112.532 267.787 112.524 267.833 112.498L269.334 111.597C269.356 111.583 269.376 111.564 269.391 111.542C269.406 111.52 269.417 111.496 269.422 111.47C269.427 111.445 269.427 111.418 269.421 111.393C269.416 111.367 269.405 111.343 269.39 111.321Z" fill="#464A5F"/>
<path d="M267.144 112.808L266.159 111.487C266.128 111.447 266.082 111.419 266.031 111.41C265.979 111.401 265.926 111.412 265.883 111.44L264.461 112.353C264.417 112.382 264.387 112.426 264.376 112.476C264.366 112.526 264.376 112.578 264.405 112.62L265.292 113.925C265.321 113.968 265.367 113.998 265.419 114.008C265.471 114.019 265.526 114.009 265.571 113.982L267.071 113.081C267.096 113.069 267.117 113.051 267.134 113.031C267.151 113.01 267.163 112.986 267.17 112.96C267.177 112.934 267.178 112.908 267.174 112.882C267.169 112.855 267.159 112.831 267.144 112.808Z" fill="#464A5F"/>
<path d="M264.931 114.336L263.903 112.934C263.879 112.903 263.844 112.883 263.805 112.876C263.766 112.87 263.726 112.878 263.693 112.899L262.189 113.866C262.156 113.888 262.134 113.921 262.127 113.958C262.119 113.996 262.127 114.034 262.149 114.066L263.092 115.45C263.113 115.482 263.147 115.504 263.186 115.512C263.224 115.521 263.265 115.514 263.299 115.494L264.888 114.553C264.907 114.542 264.923 114.528 264.936 114.511C264.949 114.494 264.958 114.474 264.962 114.454C264.966 114.433 264.965 114.412 264.96 114.392C264.954 114.371 264.944 114.352 264.931 114.336Z" fill="#464A5F"/>
<path d="M291.509 99.8629L290.632 98.6518C290.582 98.5868 290.508 98.5427 290.424 98.5287C290.341 98.5147 290.256 98.5318 290.185 98.5765L286.691 100.901C286.624 100.948 286.578 101.017 286.562 101.096C286.546 101.174 286.562 101.254 286.606 101.322L287.447 102.558C287.471 102.592 287.502 102.622 287.538 102.644C287.574 102.667 287.614 102.683 287.657 102.691C287.699 102.699 287.743 102.698 287.785 102.69C287.827 102.682 287.867 102.666 287.903 102.643L291.427 100.286C291.494 100.239 291.54 100.169 291.556 100.09C291.571 100.012 291.554 99.9302 291.509 99.8629Z" fill="#464A5F"/>
<path d="M268.812 115.07L267.722 113.599C267.71 113.583 267.696 113.57 267.679 113.559C267.663 113.549 267.644 113.542 267.624 113.539C267.605 113.535 267.584 113.536 267.565 113.54C267.546 113.545 267.527 113.553 267.511 113.564L263.762 116.074C263.729 116.096 263.707 116.128 263.7 116.165C263.692 116.202 263.7 116.24 263.722 116.272L264.75 117.784C264.761 117.8 264.775 117.815 264.792 117.826C264.809 117.836 264.828 117.844 264.848 117.848C264.867 117.852 264.888 117.852 264.908 117.848C264.928 117.844 264.947 117.836 264.963 117.825L268.776 115.274C268.808 115.251 268.831 115.217 268.837 115.179C268.844 115.141 268.835 115.102 268.812 115.07Z" fill="#464A5F"/>
<path d="M280.741 103.816L279.756 102.42C279.734 102.388 279.699 102.367 279.66 102.359C279.621 102.351 279.58 102.359 279.546 102.379L271.222 107.744C271.206 107.754 271.191 107.768 271.18 107.783C271.169 107.799 271.161 107.816 271.157 107.834C271.153 107.853 271.153 107.872 271.157 107.89C271.161 107.909 271.168 107.926 271.179 107.942L272.204 109.448C272.215 109.464 272.229 109.478 272.246 109.489C272.263 109.5 272.282 109.508 272.302 109.512C272.321 109.515 272.342 109.515 272.362 109.511C272.382 109.507 272.401 109.5 272.417 109.489L280.719 104.017C280.749 103.993 280.769 103.958 280.773 103.921C280.777 103.883 280.766 103.846 280.741 103.816Z" fill="#464A5F"/>
<path opacity="0.1" d="M280.781 99.0221L276.354 92.8758C276.232 92.705 276.044 92.5874 275.831 92.5486C275.618 92.5098 275.398 92.553 275.218 92.6687L263.026 100.49C262.936 100.548 262.859 100.623 262.8 100.709C262.74 100.796 262.699 100.893 262.678 100.994C262.658 101.096 262.659 101.201 262.68 101.302C262.702 101.403 262.745 101.5 262.806 101.585L267.318 107.907C267.378 107.993 267.456 108.067 267.547 108.124C267.637 108.181 267.739 108.22 267.846 108.239C267.952 108.258 268.062 108.257 268.168 108.236C268.274 108.215 268.374 108.173 268.464 108.115L280.571 100.111C280.659 100.053 280.735 99.9783 280.794 99.892C280.853 99.8058 280.893 99.7093 280.912 99.6081C280.932 99.507 280.93 99.4031 280.908 99.3026C280.885 99.202 280.842 99.1067 280.781 99.0221Z" fill="black"/>
<path d="M280.984 99.0599L276.558 92.9136C276.435 92.7435 276.247 92.6264 276.034 92.5877C275.822 92.5489 275.602 92.5916 275.422 92.7065L263.246 100.535C263.155 100.592 263.078 100.666 263.018 100.752C262.957 100.839 262.916 100.936 262.895 101.038C262.874 101.139 262.875 101.244 262.897 101.346C262.919 101.447 262.961 101.544 263.023 101.63L267.521 107.945C267.582 108.031 267.66 108.105 267.75 108.162C267.841 108.219 267.942 108.258 268.049 108.277C268.156 108.296 268.265 108.295 268.371 108.274C268.477 108.252 268.578 108.211 268.667 108.152L280.781 100.149C280.869 100.09 280.944 100.015 281.002 99.9288C281.06 99.8423 281.1 99.7458 281.119 99.6446C281.138 99.5435 281.136 99.4398 281.112 99.3395C281.089 99.2392 281.046 99.1442 280.984 99.0599Z" fill="#939498"/>
<path d="M308.433 108.993L299.041 106L268.92 125.992L278.243 128.894C278.494 128.973 278.761 128.994 279.022 128.957C279.284 128.92 279.533 128.826 279.75 128.681L308.518 109.567C308.574 109.536 308.619 109.489 308.647 109.433C308.675 109.377 308.686 109.314 308.676 109.253C308.667 109.191 308.639 109.134 308.596 109.088C308.552 109.041 308.496 109.009 308.433 108.993Z" fill="#79B178"/>
</svg>
