<svg width="189" height="196" viewBox="0 0 189 196" fill="none" xmlns="http://www.w3.org/2000/svg">
<g clip-path="url(#clip0_181_340)">
<path d="M186.07 154.239L99.1083 189.772C98.0254 190.213 96.8419 190.116 95.8177 189.503C94.7935 188.891 94.0122 187.812 93.6451 186.504L53.3636 42.4119C52.9989 41.1026 53.0788 39.6719 53.5855 38.4337C54.0923 37.1955 54.9847 36.2508 56.0668 35.807L143.028 0.274707C144.111 -0.166157 145.294 -0.0696658 146.319 0.543008C147.343 1.15568 148.124 2.2345 148.491 3.54279L188.773 147.635C189.137 148.944 189.058 150.375 188.551 151.613C188.044 152.851 187.152 153.796 186.07 154.239Z" fill="#E6E6E6"/>
<path d="M183.85 151.578L99.5375 186.029C98.8058 186.326 98.0062 186.261 97.3141 185.847C96.6221 185.433 96.0942 184.704 95.8461 183.82L56.4598 42.9307C56.2134 42.046 56.2673 41.0793 56.6098 40.2427C56.9522 39.4061 57.5551 38.7678 58.2863 38.4679L142.599 4.01779C143.331 3.71991 144.13 3.7851 144.822 4.19907C145.514 4.61304 146.042 5.34197 146.29 6.22595L185.677 147.116C185.923 148 185.869 148.967 185.527 149.804C185.184 150.64 184.581 151.279 183.85 151.578Z" fill="white"/>
<path d="M162.655 195.578H70.8613C69.7185 195.576 68.623 195.026 67.815 194.05C67.0069 193.073 66.5524 191.748 66.5511 190.367V38.2679C66.5524 36.8864 67.0069 35.5619 67.815 34.585C68.623 33.6082 69.7185 33.0587 70.8613 33.0571H162.655C163.798 33.0587 164.893 33.6082 165.701 34.585C166.509 35.5619 166.964 36.8864 166.965 38.2679V190.367C166.964 191.748 166.509 193.073 165.701 194.05C164.893 195.026 163.798 195.576 162.655 195.578Z" fill="#CCCCCC"/>
<path d="M161.257 192.197H72.2592C71.4871 192.196 70.7468 191.825 70.2009 191.165C69.6549 190.505 69.3478 189.61 69.3469 188.677V39.9578C69.3478 39.0244 69.6549 38.1294 70.2009 37.4694C70.7468 36.8093 71.4871 36.4381 72.2592 36.437H161.257C162.029 36.4381 162.769 36.8093 163.315 37.4694C163.861 38.1294 164.168 39.0244 164.169 39.9578V188.677C164.168 189.61 163.861 190.505 163.315 191.165C162.769 191.825 162.029 192.196 161.257 192.197Z" fill="white"/>
<path d="M142.298 78.624H83.5167C83.0215 78.624 82.5466 78.3861 82.1964 77.9628C81.8463 77.5395 81.6495 76.9653 81.6495 76.3667C81.6495 75.768 81.8463 75.1938 82.1964 74.7705C82.5466 74.3472 83.0215 74.1094 83.5167 74.1094H142.298C142.793 74.1094 143.268 74.3472 143.618 74.7705C143.968 75.1938 144.165 75.768 144.165 76.3667C144.165 76.9653 143.968 77.5395 143.618 77.9628C143.268 78.3861 142.793 78.624 142.298 78.624Z" fill="#CCCCCC"/>
<path d="M149.999 86.2421H83.5167C83.2715 86.2421 83.0287 86.1837 82.8021 86.0703C82.5756 85.9569 82.3698 85.7906 82.1964 85.581C82.023 85.3714 81.8855 85.1225 81.7917 84.8487C81.6978 84.5748 81.6495 84.2813 81.6495 83.9848C81.6495 83.6884 81.6978 83.3949 81.7917 83.121C81.8855 82.8471 82.023 82.5983 82.1964 82.3887C82.3698 82.1791 82.5756 82.0128 82.8021 81.8994C83.0287 81.7859 83.2715 81.7275 83.5167 81.7275H149.999C150.495 81.7275 150.97 81.9654 151.32 82.3887C151.67 82.812 151.867 83.3862 151.867 83.9848C151.867 84.5835 151.67 85.1577 151.32 85.581C150.97 86.0043 150.495 86.2421 149.999 86.2421Z" fill="#CCCCCC"/>
<path d="M142.298 112.766H83.5166C83.0218 112.765 82.5474 112.527 82.1977 112.104C81.848 111.68 81.6516 111.106 81.6516 110.508C81.6516 109.91 81.848 109.336 82.1977 108.913C82.5474 108.49 83.0218 108.252 83.5166 108.251H142.298C142.793 108.251 143.268 108.489 143.618 108.912C143.968 109.335 144.165 109.91 144.165 110.508C144.165 111.107 143.968 111.681 143.618 112.104C143.268 112.528 142.793 112.766 142.298 112.766Z" fill="#124612"/>
<path d="M149.999 120.384H83.5166C83.0218 120.383 82.5474 120.145 82.1977 119.722C81.848 119.298 81.6516 118.725 81.6516 118.126C81.6516 117.528 81.848 116.954 82.1977 116.531C82.5474 116.108 83.0218 115.87 83.5166 115.869H149.999C150.495 115.869 150.97 116.107 151.32 116.53C151.67 116.954 151.867 117.528 151.867 118.126C151.867 118.725 151.67 119.299 151.32 119.723C150.97 120.146 150.495 120.384 149.999 120.384Z" fill="#CCCCCC"/>
<path d="M142.298 146.907H83.5166C83.0218 146.906 82.5474 146.668 82.1977 146.245C81.848 145.821 81.6516 145.248 81.6516 144.649C81.6516 144.051 81.848 143.477 82.1977 143.054C82.5474 142.631 83.0218 142.393 83.5166 142.392H142.298C142.793 142.392 143.268 142.63 143.618 143.053C143.968 143.477 144.165 144.051 144.165 144.649C144.165 145.248 143.968 145.822 143.618 146.246C143.268 146.669 142.793 146.907 142.298 146.907Z" fill="#CCCCCC"/>
<path d="M149.999 154.525H83.5167C83.0215 154.525 82.5466 154.288 82.1964 153.864C81.8463 153.441 81.6495 152.867 81.6495 152.268C81.6495 151.669 81.8463 151.095 82.1964 150.672C82.5466 150.249 83.0215 150.011 83.5167 150.011H149.999C150.495 150.011 150.97 150.249 151.32 150.672C151.67 151.095 151.867 151.669 151.867 152.268C151.867 152.867 151.67 153.441 151.32 153.864C150.97 154.288 150.495 154.525 149.999 154.525Z" fill="#CCCCCC"/>
<path d="M47.6423 104.392H34.1296C33.8516 104.392 33.5851 104.258 33.3886 104.021C33.192 103.783 33.0815 103.461 33.0812 103.125V96.0832C33.0812 93.5807 33.9035 91.1807 35.3671 89.4111C36.8308 87.6416 38.816 86.6475 40.886 86.6475C42.9559 86.6475 44.9411 87.6416 46.4048 89.4111C47.8685 91.1807 48.6907 93.5807 48.6907 96.0832V103.125C48.6904 103.461 48.5799 103.783 48.3833 104.021C48.1868 104.258 47.9203 104.392 47.6423 104.392Z" fill="#2F2E41"/>
<path d="M68.4982 141.142C68.1561 141.12 67.8222 141.008 67.5198 140.814C67.2175 140.619 66.954 140.347 66.7481 140.016C66.5422 139.685 66.3989 139.304 66.3281 138.899C66.2573 138.493 66.2609 138.074 66.3385 137.671L59.2967 132.302L63.238 130.145L69.3208 135.574C69.8725 135.777 70.3436 136.217 70.6448 136.812C70.946 137.406 71.0564 138.113 70.955 138.8C70.8536 139.486 70.5475 140.103 70.0947 140.535C69.6419 140.967 69.0738 141.183 68.4982 141.142Z" fill="#FFB8B8"/>
<path d="M63.6389 136.761C63.3994 136.734 63.1714 136.625 62.9818 136.446L43.6098 118.292L41.112 112.922C40.8704 112.405 40.762 111.813 40.8005 111.221C40.8391 110.63 41.0229 110.066 41.3284 109.601C41.5399 109.278 41.8042 109.011 42.1049 108.818C42.4056 108.624 42.7362 108.508 43.0759 108.476C43.4155 108.444 43.757 108.497 44.0788 108.632C44.4007 108.767 44.696 108.981 44.9462 109.261L66.5387 130.434C66.6783 130.548 66.7977 130.694 66.8899 130.865C66.982 131.036 67.045 131.227 67.0751 131.428C67.1053 131.628 67.102 131.834 67.0655 132.033C67.029 132.232 66.9599 132.42 66.8624 132.586L64.7923 136.12C64.694 136.29 64.5681 136.433 64.4223 136.541C64.2766 136.649 64.1141 136.721 63.9448 136.75C63.8435 136.769 63.7408 136.772 63.6389 136.761Z" fill="#2F2E41"/>
<path d="M17.9846 188.736L20.6324 190.031L26.0247 178.301L22.1169 176.389L17.9846 188.736Z" fill="#FFB8B8"/>
<path d="M17.659 187.36L22.8733 189.911L22.8735 189.911C23.3099 190.125 23.7072 190.44 24.0428 190.839C24.3784 191.238 24.6456 191.713 24.8293 192.237C25.013 192.761 25.1095 193.324 25.1134 193.893C25.1172 194.462 25.0283 195.027 24.8517 195.554L24.808 195.685L16.2707 191.508L17.659 187.36Z" fill="#2F2E41"/>
<path d="M48.8368 192.338L51.6931 192.337L53.0521 179.018L48.8363 179.018L48.8368 192.338Z" fill="#FFB8B8"/>
<path d="M48.1083 191.21L53.7333 191.21H53.7335C54.2043 191.21 54.6704 191.322 55.1053 191.54C55.5402 191.758 55.9354 192.077 56.2683 192.479C56.6012 192.882 56.8652 193.359 57.0454 193.885C57.2255 194.411 57.3182 194.975 57.3182 195.544V195.685L48.1085 195.685L48.1083 191.21Z" fill="#2F2E41"/>
<path d="M51.1901 184.808C50.0557 184.808 48.9432 184.249 48.3292 183.877C48.1701 183.782 48.0312 183.644 47.9233 183.473C47.8154 183.303 47.7415 183.104 47.7071 182.894L41.6866 146.197L26.0676 181.526C25.9273 181.844 25.6913 182.085 25.4084 182.198C22.0444 183.557 20.2098 181.419 19.577 180.437C19.4483 180.236 19.368 179.995 19.3451 179.742C19.3221 179.489 19.3574 179.233 19.447 179.003L26.6807 160.004L31.0545 141.957L35.4756 128.75L35.5721 128.762L50.3555 130.644L52.1532 142.596L53.9636 182.394C53.9797 182.711 53.905 183.025 53.752 183.284C53.4625 183.774 53.077 184.17 52.6299 184.436C52.1828 184.702 51.6881 184.83 51.1901 184.808Z" fill="#2F2E41"/>
<path d="M42.8122 104.286C45.9724 104.286 48.5343 101.188 48.5343 97.3677C48.5343 93.547 45.9724 90.4497 42.8122 90.4497C39.6519 90.4497 37.09 93.547 37.09 97.3677C37.09 101.188 39.6519 104.286 42.8122 104.286Z" fill="#FFB8B8"/>
<path d="M44.8022 136.138C42.311 136.138 39.2286 134.375 35.6087 130.874L35.547 130.814L38.1064 106.404L38.2259 106.398C41.8867 106.238 44.8659 107.362 47.3324 109.842L47.3536 109.869L49.3535 112.977L49.3544 113.034L49.6364 132.128L49.6293 132.155C49.3644 133.028 48.937 133.817 48.3801 134.46C47.8232 135.102 47.1517 135.581 46.4174 135.861C45.8931 136.048 45.3489 136.141 44.8022 136.138Z" fill="#124612"/>
<path d="M48.4869 147.549C48.2072 147.548 47.9355 147.436 47.7138 147.23C47.4922 147.024 47.3328 146.735 47.2605 146.409L43.747 130.328L41.5213 144.978C41.4628 145.367 41.2822 145.714 41.0172 145.945C40.7522 146.176 40.4235 146.275 40.0999 146.219L30.4079 144.584C30.2232 144.553 30.0464 144.473 29.8902 144.35C29.7341 144.226 29.6023 144.063 29.5044 143.871C29.4065 143.679 29.3449 143.463 29.3239 143.239C29.3029 143.015 29.3231 142.788 29.3831 142.575L34.2856 125.106L33.1881 114.87C33.0751 113.816 33.1447 112.746 33.3923 111.726C33.64 110.706 34.0604 109.76 34.6268 108.947C35.1931 108.134 35.8931 107.473 36.6823 107.005C37.4715 106.537 38.3325 106.272 39.2108 106.228L39.3091 106.223L43.9708 119.815L44.7122 116.23L45.8725 108.513L46.0457 108.634C47.6838 109.776 49.0307 111.44 49.9394 113.444C50.848 115.449 51.2833 117.717 51.1978 120.001L50.9038 128.175L53.5084 144.863C53.5701 145.262 53.4986 145.674 53.3097 146.01C53.1208 146.345 52.8297 146.576 52.5002 146.652L48.7228 147.522C48.645 147.54 48.566 147.549 48.4869 147.549Z" fill="#2F2E41"/>
<path d="M50.5371 96.7876H42.2744L42.1897 95.3534L41.766 96.7876H40.4937L40.3258 93.9451L39.4862 96.7876H37.0244V96.6467C37.0262 94.6678 37.6772 92.7706 38.8347 91.3713C39.9921 89.972 41.5614 89.1849 43.1982 89.1826H44.3632C46 89.1849 47.5693 89.972 48.7268 91.3713C49.8842 92.7706 50.5353 94.6678 50.5371 96.6467V96.7876Z" fill="#2F2E41"/>
<path d="M185.684 196H0.232979C0.171189 196 0.11193 195.97 0.0682377 195.917C0.0245457 195.865 0 195.793 0 195.718C0 195.643 0.0245457 195.572 0.0682377 195.519C0.11193 195.466 0.171189 195.437 0.232979 195.437H185.684C185.746 195.437 185.805 195.466 185.849 195.519C185.892 195.572 185.917 195.643 185.917 195.718C185.917 195.793 185.892 195.865 185.849 195.917C185.805 195.97 185.746 196 185.684 196Z" fill="#CCCCCC"/>
<path d="M45.0007 139.728C45.0003 140.179 45.0802 140.626 45.2351 141.037C45.39 141.448 45.6162 141.814 45.8983 142.111C46.1804 142.407 46.512 142.626 46.8704 142.754C47.2288 142.882 47.6058 142.915 47.9757 142.851C48.3171 143.798 48.8797 144.604 49.5945 145.17C50.3094 145.737 51.1453 146.038 51.9998 146.038C52.5762 146.038 53.147 145.901 53.6795 145.634C54.2121 145.367 54.6959 144.977 55.1035 144.484C55.5111 143.991 55.8344 143.406 56.055 142.762C56.2756 142.118 56.3891 141.428 56.3891 140.732V136.134C56.3891 134.95 55.5956 134.554 54.6167 134.554H49.383C48.4041 134.554 47.6105 134.95 47.6105 136.134V136.572C46.9186 136.573 46.2552 136.906 45.7659 137.498C45.2767 138.089 45.0015 138.891 45.0007 139.728ZM45.7125 139.728C45.713 139.119 45.9132 138.536 46.269 138.106C46.6249 137.676 47.1073 137.434 47.6105 137.433V140.732C47.6105 141.164 47.6542 141.595 47.7405 142.014C47.6973 142.018 47.6544 142.022 47.6105 142.022C47.1073 142.022 46.6249 141.78 46.269 141.349C45.9132 140.919 45.713 140.336 45.7124 139.728H45.7125Z" fill="#124612"/>
<path d="M47.1024 138.97C46.9432 138.603 46.7194 138.283 46.4469 138.032C46.1743 137.781 45.8596 137.606 45.5249 137.518C45.1902 137.43 44.8436 137.432 44.5096 137.524C44.1756 137.616 43.8623 137.795 43.5917 138.048L36.6134 132.559L36.64 137.789L43.2627 142.2C43.6455 142.722 44.1733 143.055 44.7459 143.137C45.3185 143.22 45.8962 143.045 46.3695 142.647C46.8428 142.249 47.1788 141.654 47.3139 140.977C47.449 140.299 47.3737 139.585 47.1024 138.97H47.1024Z" fill="#FFB8B8"/>
<path d="M39.5463 142.162C39.2683 142.161 39.0016 142.028 38.805 141.79L29.9191 131.048C29.6352 130.707 29.4281 130.283 29.3173 129.819C29.2065 129.354 29.1958 128.862 29.2861 128.391C30.0467 124.371 31.9002 114.765 32.6827 112.4C33.2539 110.621 34.311 109.133 35.6786 108.181L35.7136 108.16L38.5267 108.788L38.7746 119.278L35.3764 128.082L42.602 136.328C42.7921 136.544 42.9087 136.837 42.9289 137.152C42.9491 137.466 42.8714 137.778 42.711 138.026L40.375 141.67C40.2838 141.813 40.1686 141.93 40.0371 142.014C39.9056 142.098 39.7608 142.148 39.6123 142.159C39.5903 142.161 39.5682 142.162 39.5463 142.162Z" fill="#2F2E41"/>
<path d="M51.99 136.006C53.7914 136.006 55.2517 135.753 55.2517 135.442C55.2517 135.131 53.7914 134.879 51.99 134.879C50.1886 134.879 48.7283 135.131 48.7283 135.442C48.7283 135.753 50.1886 136.006 51.99 136.006Z" fill="#2F2E41"/>
</g>
<defs>
<clipPath id="clip0_181_340">
<rect width="189" height="196" fill="white"/>
</clipPath>
</defs>
</svg>
