<?xml version="1.0" encoding="UTF-8" standalone="no"?>
<!DOCTYPE svg PUBLIC "-//W3C//DTD SVG 1.1//EN" "http://www.w3.org/Graphics/SVG/1.1/DTD/svg11.dtd">
<svg width="100%" height="100%" viewBox="0 0 32 32" version="1.1" xmlns="http://www.w3.org/2000/svg" xmlns:xlink="http://www.w3.org/1999/xlink" xml:space="preserve" xmlns:serif="http://www.serif.com/" style="fill-rule:evenodd;clip-rule:evenodd;stroke-linejoin:round;stroke-miterlimit:2;">
    <g id="Layer-2" serif:id="Layer 2" transform="matrix(1.01749,0,0,1.01749,-0.260334,-0.462242)">
        <path id="path945" d="M15.982,0.454C15.982,0.454 15.981,0.454 15.981,0.454C7.354,0.454 0.256,7.553 0.256,16.179C0.256,16.179 0.256,16.179 0.256,16.179C0.263,19.473 1.304,22.683 3.233,25.353L3.458,25.121L12.747,15.875L12.747,12.165L12.774,12.165C11.973,11.763 11.466,10.941 11.464,10.046C11.464,8.743 12.537,7.671 13.841,7.671C15.145,7.671 16.218,8.743 16.218,10.046C16.217,10.974 15.672,11.819 14.827,12.204L14.764,16.74L4.595,27.017C5.176,27.62 5.804,28.177 6.474,28.68L6.63,28.532L18.773,16.496C18.623,16.18 18.544,15.834 18.543,15.484C18.543,14.182 19.616,13.11 20.92,13.11C22.224,13.11 23.297,14.182 23.297,15.484C23.297,16.787 22.224,17.859 20.92,17.859C20.765,17.859 20.61,17.844 20.458,17.814L8.632,29.688L8.38,29.94C9.165,30.368 9.986,30.729 10.833,31.018L11.017,30.848L19.014,23.049C18.894,22.76 18.832,22.451 18.832,22.139C18.832,20.836 19.905,19.764 21.209,19.764C22.513,19.764 23.586,20.836 23.586,22.139C23.586,23.441 22.513,24.513 21.209,24.513C20.988,24.513 20.768,24.482 20.556,24.422L13.243,31.648C14.147,31.814 15.063,31.899 15.982,31.904C24.608,31.904 31.706,24.805 31.706,16.179C31.706,7.553 24.608,0.455 15.982,0.454Z" style="fill:url(#_Linear1);fill-rule:nonzero;"/>
    </g>
    <defs>
        <linearGradient id="_Linear1" x1="0" y1="0" x2="1" y2="0" gradientUnits="userSpaceOnUse" gradientTransform="matrix(-31.45,31.45,-31.45,-31.45,31.7059,0.454297)"><stop offset="0" style="stop-color:rgb(227,73,248);stop-opacity:1"/><stop offset="1" style="stop-color:rgb(128,0,195);stop-opacity:1"/></linearGradient>
    </defs>
</svg>
